<svg width="24" height="24" viewBox="0 0 24 24" fill="none" xmlns="http://www.w3.org/2000/svg">
<path fill-rule="evenodd" clip-rule="evenodd" d="M12.7271 2C13.4989 1.99992 14.2552 2.21631 14.9101 2.62459C15.565 3.03286 16.0923 3.61665 16.4321 4.30962L16.5096 4.47547H17.678C17.8178 4.47547 17.9553 4.51097 18.0776 4.57865C18.1999 4.64634 18.303 4.74398 18.3773 4.86242C18.4515 4.98087 18.4944 5.11623 18.502 5.25581C18.5096 5.39538 18.4816 5.5346 18.4207 5.6604L18.3646 5.7586L17.0839 7.67874C16.9857 7.82637 16.9377 8.00171 16.947 8.17878L16.9585 8.2844L17.0749 8.92308C17.8909 13.4103 14.5103 17.5468 9.98427 17.6747L9.76808 17.678H2.8252C2.68542 17.678 2.54792 17.6425 2.42562 17.5748C2.30331 17.5071 2.20021 17.4095 2.12597 17.2911C2.05174 17.1726 2.00881 17.0373 2.00122 16.8977C1.99363 16.7581 2.02161 16.6189 2.08256 16.4931L2.13867 16.3949L8.28197 7.17952C8.49021 6.86755 8.60133 6.50087 8.60131 6.12579C8.60131 5.03156 9.03599 3.98215 9.80973 3.20842C10.5835 2.43468 11.6329 2 12.7271 2ZM9.83905 9.42642C9.61543 9.42642 9.29197 9.48418 8.98418 9.59888C8.67475 9.7144 8.50394 9.8423 8.44453 9.91079L5.65219 14.1001C6.4757 13.8633 7.35615 13.6025 8.17965 13.2799C9.0601 12.9358 9.81182 12.5439 10.3325 12.0867C10.8375 11.6436 11.0768 11.1857 11.0768 10.6642C11.0768 10.3359 10.9464 10.0211 10.7143 9.78895C10.4821 9.55683 10.1673 9.42642 9.83905 9.42642ZM12.7271 5.30063C12.5083 5.30063 12.2984 5.38757 12.1436 5.54232C11.9889 5.69706 11.9019 5.90695 11.9019 6.12579C11.9019 6.34464 11.9889 6.55452 12.1436 6.70927C12.2984 6.86401 12.5083 6.95095 12.7271 6.95095C12.9459 6.95095 13.1558 6.86401 13.3106 6.70927C13.4653 6.55452 13.5523 6.34464 13.5523 6.12579C13.5523 5.90695 13.4653 5.69706 13.3106 5.54232C13.1558 5.38757 12.9459 5.30063 12.7271 5.30063Z" fill="#AFCBFB"/>
</svg>
