<svg width="24" height="24" viewBox="0 0 24 24" fill="none" xmlns="http://www.w3.org/2000/svg">
<path fill-rule="evenodd" clip-rule="evenodd" d="M12.0065 6.71853C10.7665 6.71853 10.6425 6.8546 10.0007 6.8546C9.46623 6.8546 7.86099 5.5 7.05921 5.5C6.25743 5.5 5.32076 5.98793 5.32076 7.39627V9.02127C5.32243 9.44767 5.47156 10.7546 6.05803 10.4053C5.36516 11.2529 5.29562 12.2418 5.30484 13.1986C5.11801 13.2541 4.92782 13.3173 4.74267 13.3823C4.16961 13.5851 3.56136 13.8434 3.2874 14.0271C3.14741 14.1207 3.04908 14.2679 3.01405 14.4365C2.97901 14.605 3.01013 14.7811 3.10057 14.9259C3.191 15.0707 3.33334 15.1724 3.49628 15.2086C3.65921 15.2449 3.82939 15.2127 3.96937 15.1191C4.10007 15.0316 4.57343 14.8158 5.14901 14.6121L5.34003 14.5471C5.37857 14.9224 5.47491 15.2665 5.61818 15.5785L5.59807 15.5897C5.25457 15.7769 4.9362 15.9927 4.73345 16.1297L4.63878 16.1938C4.4988 16.2874 4.40047 16.4346 4.36543 16.6031C4.33039 16.7717 4.36151 16.9477 4.45195 17.0925C4.54239 17.2373 4.68473 17.3391 4.84766 17.3753C5.01059 17.4115 5.18077 17.3794 5.32076 17.2858L5.43051 17.2113C5.63577 17.0726 5.89884 16.8949 6.18537 16.7389C6.2524 16.702 6.31691 16.6684 6.37891 16.6384C7.82831 18.045 10.4314 18.5 12.0065 18.5C13.5815 18.5 16.1846 18.045 17.634 16.6384C17.6955 16.6684 17.76 16.702 17.8275 16.7389C18.1141 16.8949 18.3772 17.0726 18.5824 17.2113L18.6922 17.2858C18.8322 17.3794 19.0023 17.4115 19.1653 17.3753C19.3282 17.3391 19.4705 17.2373 19.561 17.0925C19.6514 16.9477 19.6825 16.7717 19.6475 16.6031C19.6125 16.4346 19.5141 16.2874 19.3741 16.1938L19.2795 16.1297C18.9995 15.936 18.711 15.7558 18.4149 15.5897L18.3947 15.5785C18.538 15.2665 18.6344 14.9224 18.6729 14.5471L18.8639 14.6121C19.4395 14.8158 19.9129 15.0316 20.0444 15.1191C20.1843 15.2074 20.352 15.2357 20.5118 15.1979C20.6716 15.16 20.8108 15.0591 20.8996 14.9167C20.9885 14.7742 21.02 14.6014 20.9875 14.4353C20.955 14.2691 20.861 14.1226 20.7255 14.0271C20.4516 13.8434 19.8433 13.5851 19.2711 13.3823C19.0848 13.3165 18.897 13.255 18.7081 13.1977C18.7181 12.2409 18.6478 11.2529 17.9541 10.4053C18.5405 10.7546 18.6913 9.44767 18.6922 9.0204V7.39627C18.6922 5.98793 17.7563 5.5 16.9537 5.5C16.1519 5.5 14.5467 6.8546 14.013 6.8546C13.3704 6.8546 13.2464 6.71853 12.0065 6.71853ZM11.4409 14.6867C11.6102 14.6269 11.8104 14.6 12.0065 14.6C12.2025 14.6 12.4027 14.6269 12.5728 14.6867C12.6566 14.7161 12.7571 14.7629 12.8476 14.8375C12.9096 14.8859 12.9603 14.9481 12.996 15.0195C13.0316 15.0909 13.0514 15.1697 13.0537 15.25C13.0537 15.4493 12.9373 15.588 12.8476 15.6625C12.758 15.7371 12.6558 15.7839 12.5728 15.8133C12.4027 15.8731 12.2025 15.9 12.0065 15.9C11.8104 15.9 11.6102 15.8731 11.4409 15.8133C11.3414 15.7796 11.2482 15.7286 11.1653 15.6625C11.1033 15.6141 11.0526 15.5519 11.0169 15.4805C10.9813 15.4091 10.9615 15.3303 10.9592 15.25C10.9592 15.0507 11.0757 14.912 11.1653 14.8375C11.2549 14.7629 11.358 14.7161 11.4409 14.6867ZM13.8245 12C13.9393 11.8024 14.1647 11.5667 14.5031 11.5667C14.8416 11.5667 15.0678 11.8024 15.1818 12C15.3007 12.2071 15.3577 12.4567 15.3577 12.7046C15.3577 12.9525 15.3007 13.2012 15.1818 13.4075C15.0678 13.6059 14.8416 13.8417 14.5031 13.8417C14.1647 13.8417 13.9393 13.6059 13.8245 13.4083C13.7064 13.1941 13.6457 12.9512 13.6486 12.7046C13.6486 12.4567 13.7055 12.2071 13.8245 12.0009M8.83117 12.0009C8.94595 11.8033 9.17132 11.5675 9.5098 11.5675C9.84827 11.5675 10.0745 11.8033 10.1884 12.0009C10.3074 12.208 10.3644 12.4576 10.3644 12.7055C10.3644 12.9533 10.3074 13.2021 10.1884 13.4083C10.0745 13.6068 9.84827 13.8425 9.5098 13.8425C9.17132 13.8425 8.94595 13.6068 8.83117 13.4092C8.71307 13.195 8.65234 12.9521 8.65523 12.7055C8.65523 12.4576 8.7122 12.2071 8.83117 12.0009Z" fill="#AFCBFB"/>
</svg>
