<svg width="24" height="24" viewBox="0 0 24 24" fill="none" xmlns="http://www.w3.org/2000/svg">
<path d="M20.3434 12.9049L18.3454 13.0462C17.8092 13.0858 17.5881 13.7585 17.997 14.1078L19.5321 15.3984C19.867 15.6809 20.3768 15.5331 20.5112 15.1158L20.967 13.7117C21.1078 13.2944 20.7793 12.8713 20.3434 12.9049ZM15.6961 3.4566L15.2333 5.37109C15.1047 5.88602 15.6576 6.30193 16.0947 6.01806L17.7276 4.97499C18.0812 4.75053 18.1005 4.2224 17.7597 3.97154L16.6154 3.11992C16.538 3.06063 16.4475 3.0219 16.352 3.00717C16.2565 2.99244 16.159 3.00216 16.068 3.03547C15.977 3.06879 15.8955 3.12466 15.8306 3.19813C15.7658 3.2716 15.7196 3.36039 15.6961 3.4566ZM5.84748 4.97763L7.47392 6.0207C7.91107 6.30457 8.46393 5.89527 8.34179 5.37373L7.87893 3.45924C7.85522 3.36323 7.809 3.27463 7.74431 3.20116C7.67961 3.1277 7.5984 3.07159 7.50775 3.03774C7.41711 3.00389 7.31977 2.99332 7.22424 3.00696C7.1287 3.02059 7.03786 3.05801 6.95963 3.11596L5.81534 3.96757C5.47462 4.23164 5.4939 4.75318 5.84748 4.97763ZM4.40425 15.3542L5.87641 14.0866C6.27498 13.7434 6.06284 13.0766 5.54855 13.0436L3.63281 12.9049C3.53633 12.898 3.43966 12.9154 3.35128 12.9558C3.26289 12.9961 3.18548 13.0581 3.12584 13.1363C3.0662 13.2145 3.02614 13.3065 3.00917 13.4043C2.9922 13.502 2.99885 13.6026 3.02852 13.6971L3.46567 15.0769C3.59424 15.4862 4.08925 15.6314 4.40425 15.3542ZM13.1536 20.1681L12.4336 18.3394C12.2408 17.8443 11.5593 17.8443 11.3665 18.3394L10.6465 20.1681C10.4922 20.5642 10.775 20.9999 11.1929 20.9999H12.6072C12.7035 20.9994 12.7982 20.9747 12.8831 20.9281C12.968 20.8814 13.0405 20.8142 13.0944 20.7322C13.1482 20.6503 13.1818 20.556 13.1921 20.4577C13.2024 20.3594 13.1892 20.26 13.1536 20.1681Z" fill="#AFCBFB"/>
<path d="M13.0051 3.87456L14.1147 6.33039C14.3243 6.78854 14.7364 7.10938 15.2185 7.182L17.826 7.59395C19.0056 7.77747 19.4813 9.26417 18.6572 10.1415L16.6714 12.2429C16.5115 12.4122 16.3925 12.6178 16.3242 12.843C16.2558 13.0682 16.24 13.3068 16.278 13.5394L16.7344 16.427C16.9318 17.6714 15.6499 18.6009 14.5782 17.9916L12.3893 16.7412C12.1725 16.6157 11.9278 16.5498 11.6789 16.5498C11.43 16.5498 11.1854 16.6157 10.9686 16.7412L8.78025 17.9923C7.70795 18.6009 6.42672 17.6714 6.62344 16.4277L7.07987 13.5394C7.11782 13.3068 7.10198 13.0682 7.03364 12.843C6.9653 12.6178 6.84637 12.4122 6.68644 12.2429L4.70128 10.1409C3.87005 9.25625 4.3522 7.77681 5.5325 7.59329L8.13931 7.18068C8.37688 7.14166 8.60159 7.0437 8.79394 6.8953C8.98629 6.74689 9.14048 6.55252 9.24311 6.32906L10.3533 3.8739C10.8798 2.7087 12.4786 2.7087 13.0045 3.8739" fill="#AFCBFB"/>
</svg>
