<svg width="24" height="24" viewBox="0 0 24 24" fill="none" xmlns="http://www.w3.org/2000/svg">
<path d="M14.7505 11.9996C14.75 10.6659 15.1028 9.35588 15.7729 8.20274L15.7771 8.19536L15.9395 7.92571C15.9512 7.9065 15.9582 7.88475 15.9598 7.86229C15.9614 7.83984 15.9575 7.81733 15.9486 7.79666C15.9397 7.77599 15.9259 7.75776 15.9085 7.74351C15.8911 7.72926 15.8705 7.71941 15.8485 7.71477C15.3933 7.61955 14.9321 7.55623 14.4682 7.52528C14.4135 7.52175 14.3611 7.50218 14.3174 7.46903C13.6396 6.95364 12.2959 6.05223 10.9262 5.82055C10.8326 5.80505 10.7366 5.81346 10.6472 5.84502C10.5577 5.87658 10.4777 5.93026 10.4145 6.00106C10.3513 6.07186 10.3071 6.15749 10.286 6.24997C10.2648 6.34245 10.2673 6.43878 10.2934 6.53001L10.6668 7.83677C10.6765 7.87063 10.6731 7.9069 10.6574 7.93841C10.6416 7.96992 10.6146 7.99437 10.5817 8.00692C9.28618 8.48821 8.17033 9.36923 7.35646 10.0407C7.30665 10.0815 7.24436 10.1039 7.18 10.1043C7.11563 10.1047 7.05308 10.083 7.00279 10.0428C6.89216 9.95493 6.77861 9.86833 6.66212 9.78302C5.26853 8.76524 3.6313 8.6313 3.5624 8.62638C3.47491 8.61977 3.38709 8.63371 3.30595 8.6671C3.22482 8.70049 3.15262 8.7524 3.09513 8.81867C3.03763 8.88494 2.99644 8.96375 2.97484 9.04878C2.95323 9.13382 2.95182 9.22273 2.97072 9.30841C2.98548 9.37626 3.2938 10.7389 4.08517 11.8259C4.12079 11.8747 4.14 11.9335 4.14 11.9938C4.14 12.0542 4.12079 12.113 4.08517 12.1617C3.2938 13.2484 2.98548 14.6114 2.97072 14.6792C2.95182 14.7649 2.95323 14.8538 2.97484 14.9389C2.99644 15.0239 3.03763 15.1027 3.09513 15.169C3.15262 15.2352 3.22482 15.2871 3.30595 15.3205C3.38709 15.3539 3.47491 15.3679 3.5624 15.3613C3.63271 15.3563 5.26853 15.2206 6.66036 14.2053C6.77404 14.1219 6.88501 14.0373 6.99329 13.9515C7.04363 13.9114 7.1062 13.8897 7.17057 13.8902C7.23493 13.8906 7.2972 13.9131 7.34697 13.954C8.16435 14.6286 9.28232 15.5107 10.5813 15.993C10.6142 16.0056 10.6411 16.03 10.6569 16.0614C10.6726 16.0928 10.676 16.129 10.6664 16.1628L10.2917 17.4699C10.2656 17.5612 10.263 17.6575 10.2842 17.75C10.3054 17.8425 10.3496 17.9281 10.4127 17.9989C10.4759 18.0697 10.5559 18.1234 10.6454 18.1549C10.7349 18.1865 10.8309 18.1949 10.9245 18.1794C11.5277 18.0774 12.7484 17.7273 14.3012 16.533C14.3456 16.4992 14.3989 16.479 14.4545 16.475C14.9179 16.4447 15.3786 16.3824 15.8333 16.2887C15.8548 16.2842 15.8749 16.2747 15.8921 16.261C15.9092 16.2474 15.9229 16.2299 15.9321 16.21C15.9413 16.1901 15.9457 16.1683 15.945 16.1463C15.9443 16.1244 15.9384 16.103 15.9279 16.0837L15.7693 15.7923C15.1012 14.64 14.7497 13.3316 14.7505 11.9996Z" fill="#AFCBFB"/>
<path d="M21.0423 11.9976C21.0423 11.4161 20.5406 10.3537 19.4388 9.396C18.81 8.85503 18.0932 8.42556 17.3196 8.12616C17.2939 8.11653 17.2655 8.11682 17.24 8.12695C17.2144 8.13709 17.1936 8.15635 17.1815 8.181C17.1762 8.1912 17.1709 8.20104 17.1649 8.21124L16.8278 8.77022C16.2592 9.752 15.96 10.8665 15.9604 12.0011C15.9609 13.1356 16.2609 14.2499 16.8302 15.2312L16.8383 15.2449L17.1456 15.8074C17.1619 15.8373 17.1885 15.8603 17.2204 15.872C17.2524 15.8838 17.2875 15.8836 17.3193 15.8714C19.9043 14.86 21.0423 12.8937 21.0423 11.9976ZM17.7404 11.9926C17.6239 12.0079 17.5056 11.9863 17.402 11.9308C17.2984 11.8754 17.2148 11.7889 17.1629 11.6835C17.111 11.5781 17.0934 11.4591 17.1125 11.3431C17.1317 11.2272 17.1867 11.1202 17.2697 11.0371C17.3528 10.9541 17.4598 10.8991 17.5757 10.8799C17.6917 10.8608 17.8107 10.8784 17.9161 10.9303C18.0215 10.9822 18.1079 11.0658 18.1634 11.1694C18.2189 11.273 18.2405 11.3913 18.2252 11.5078C18.2092 11.6308 18.1529 11.745 18.0652 11.8326C17.9776 11.9203 17.8634 11.9766 17.7404 11.9926Z" fill="#AFCBFB"/>
</svg>
