<svg width="24" height="24" viewBox="0 0 24 24" fill="none" xmlns="http://www.w3.org/2000/svg">
<path d="M18.6018 9.30826C18.5914 9.26832 18.581 9.22992 18.5692 9.18998C20.1789 7.49263 20.6146 5.22848 19.5371 4.1133C18.5247 3.06417 16.5356 3.39903 14.9392 4.82757C14.0855 4.41898 13.1369 4.1901 12.1349 4.1901C11.0825 4.1901 10.0879 4.44202 9.20158 4.88901C7.59634 3.40978 5.56423 3.04881 4.53706 4.1133C3.45504 5.23462 3.8997 7.51414 5.52717 9.21302C3.99753 10.3405 3 12.1899 3 14.282C3 17.7167 5.68577 20.5 9 20.5C10.0939 20.5 11.1181 20.1959 12 19.6659C12.8834 20.1959 13.9061 20.5 15 20.5C18.3142 20.5 21 17.7167 21 14.282C21 12.2483 20.0573 10.4419 18.6003 9.30826H18.6018ZM8.78063 10.5986C8.78063 10.0471 9.09338 9.60165 9.47875 9.60165C9.86413 9.60165 10.1769 10.0486 10.1769 10.5986C10.1769 11.1485 9.86413 11.5955 9.47875 11.5955C9.09338 11.5955 8.78063 11.1485 8.78063 10.5986ZM13.5919 16.2144C13.8468 16.0055 14.2189 16.047 14.4234 16.3081C14.628 16.5692 14.5939 16.9502 14.3434 17.1652C14.3078 17.1944 13.6838 17.7197 12.7826 17.7197C12.5395 17.7197 12.2772 17.6813 12 17.5846C11.7228 17.6813 11.4605 17.7197 11.2174 17.7197C10.3177 17.7197 9.69219 17.1944 9.65662 17.1652C9.40464 16.9486 9.36907 16.5615 9.57806 16.3004C9.78557 16.0408 10.1561 16.0039 10.4081 16.2159C10.4363 16.239 10.8468 16.5615 11.4056 16.474V15.1975C10.2673 14.9825 9.4417 14.1591 9.4417 13.1453C9.4417 12.8059 9.70702 12.5309 10.0346 12.5309C10.3622 12.5309 10.6275 12.8059 10.6275 13.1453C10.6275 13.5616 11.1907 14.0255 11.9985 14.0255C12.8063 14.0255 13.371 13.5616 13.371 13.1453C13.371 12.8059 13.6364 12.5309 13.9639 12.5309C14.2915 12.5309 14.5568 12.8059 14.5568 13.1453C14.5568 14.1591 13.7312 14.9825 12.5914 15.1975V16.4724C13.1546 16.5615 13.5697 16.2313 13.5904 16.2144H13.5919ZM14.5227 11.5955C14.1374 11.5955 13.8246 11.1485 13.8246 10.5986C13.8246 10.0486 14.1374 9.60165 14.5227 9.60165C14.9081 9.60165 15.2208 10.0486 15.2208 10.5986C15.2208 11.1485 14.9081 11.5955 14.5227 11.5955Z" fill="#AFCBFB"/>
</svg>
