<svg width="24" height="24" viewBox="0 0 24 24" fill="none" xmlns="http://www.w3.org/2000/svg">
<path d="M21 18.7467C21 17.501 19.9916 16.4912 18.7475 16.4912H17.3626C18.3512 16.4912 19.1505 15.6886 19.1505 14.7009C19.1505 13.7131 18.349 12.9106 17.3626 12.9106H17.3582V8.35767C17.3582 7.67197 16.9728 7.07668 16.4092 6.77462C16.462 6.57178 16.4906 6.36012 16.4906 6.14625C16.4906 4.40887 14.6851 3 12.4613 3C10.4268 3 8.75119 4.17736 8.47596 5.70529H6.50752L4.53908 3.7342C4.36734 3.56222 4.08771 3.56222 3.91596 3.7342C3.74422 3.90617 3.74422 4.18618 3.91596 4.35816L5.67743 6.122C5.67743 6.122 5.67743 6.13523 5.67743 6.14184C5.67743 6.1683 5.67963 6.19476 5.68624 6.22121L3.91817 7.99167C3.74642 8.16364 3.74642 8.44365 3.91817 8.61563C4.00404 8.70162 4.11633 8.74571 4.22862 8.74571C4.34092 8.74571 4.45321 8.70162 4.53908 8.61563L6.52954 6.62249C6.55817 6.61146 6.58679 6.60044 6.61321 6.5828H8.47156C8.74679 8.11073 10.4246 9.28809 12.4569 9.28809C12.9171 9.28809 13.3574 9.22415 13.7692 9.11391V12.9084H8.38789C7.39927 12.9084 6.6 13.7109 6.6 14.6987C6.6 15.6864 7.40147 16.489 8.38789 16.489H7.05578C5.81174 16.489 4.8033 17.4988 4.8033 18.7445C4.8033 18.8922 4.81872 19.0355 4.84514 19.1766H4.82092C3.81468 19.1766 3 19.9924 3 21H7.05578H19.0888C19.0888 21 19.0888 20.9802 19.0888 20.9713C20.1699 20.806 21 19.8733 21 18.7445V18.7467ZM11.9989 6.38217C11.5409 6.38217 11.171 5.87065 11.171 5.24008C11.171 4.60951 11.5409 4.09799 11.9989 4.09799C12.4569 4.09799 12.8268 4.60951 12.8268 5.24008C12.8268 5.87065 12.4569 6.38217 11.9989 6.38217Z" fill="#AFCBFB"/>
</svg>
