<svg width="40" height="40" viewBox="0 0 40 40" fill="none" xmlns="http://www.w3.org/2000/svg">
<rect width="40" height="40" rx="20" fill="white"/>
<path d="M20 0C25.3043 0 30.3914 2.10714 34.1421 5.85786C37.8929 9.60859 40 14.6957 40 20C40 25.3043 37.8929 30.3914 34.1421 34.1421C30.3914 37.8929 25.3043 40 20 40C14.6957 40 9.60859 37.8929 5.85786 34.1421C2.10714 30.3914 0 25.3043 0 20C0 14.6957 2.10714 9.60859 5.85786 5.85786C9.60859 2.10714 14.6957 0 20 0ZM22.655 10.78C22.655 10.117 22.3916 9.48107 21.9228 9.01223C21.4539 8.54339 20.818 8.28 20.155 8.28C19.492 8.28 18.8561 8.54339 18.3872 9.01223C17.9184 9.48107 17.655 10.117 17.655 10.78V17.655H10.78C10.117 17.655 9.48107 17.9184 9.01223 18.3872C8.54339 18.8561 8.28 19.492 8.28 20.155C8.28 20.818 8.54339 21.4539 9.01223 21.9228C9.48107 22.3916 10.117 22.655 10.78 22.655H17.655V29.53C17.655 30.193 17.9184 30.8289 18.3872 31.2978C18.8561 31.7666 19.492 32.03 20.155 32.03C20.818 32.03 21.4539 31.7666 21.9228 31.2978C22.3916 30.8289 22.655 30.193 22.655 29.53V22.655H29.53C30.193 22.655 30.8289 22.3916 31.2978 21.9228C31.7666 21.4539 32.03 20.818 32.03 20.155C32.03 19.492 31.7666 18.8561 31.2978 18.3872C30.8289 17.9184 30.193 17.655 29.53 17.655H22.655V10.78Z" fill="#5D636F"/>
</svg>
