<svg width="49" height="49" viewBox="0 0 49 49" fill="none" xmlns="http://www.w3.org/2000/svg">
<rect x="0.5" y="0.5" width="48" height="48" rx="24" fill="#3C424B"/>
<path d="M23.5 32.5V25.5H16.5C15.9477 25.5 15.5 25.0523 15.5 24.5C15.5 23.9477 15.9477 23.5 16.5 23.5H23.5V16.5C23.5 15.9477 23.9477 15.5 24.5 15.5C25.0523 15.5 25.5 15.9477 25.5 16.5V23.5H32.5C33.0523 23.5 33.5 23.9477 33.5 24.5C33.5 25.0523 33.0523 25.5 32.5 25.5H25.5V32.5C25.5 33.0523 25.0523 33.5 24.5 33.5C23.9477 33.5 23.5 33.0523 23.5 32.5Z" fill="#D9E0ED"/>
</svg>
