<svg width="24" height="24" viewBox="0 0 24 24" fill="none" xmlns="http://www.w3.org/2000/svg">
<path d="M18.9801 14.26C18.9801 14.2236 18.9592 12.2686 17.1087 8.63943C16.961 8.3512 17.0818 8.00182 17.3771 7.85916C17.6708 7.7165 18.0302 7.83295 18.1763 8.12119C19.4363 10.5901 19.9016 12.3472 20.0731 13.3371C21.5344 11.6412 20.8306 9.58857 20.8306 9.58857C19.9911 6.81539 17.4099 5.6246 17.4099 5.6246C16.1916 4.97971 14.5678 4.76572 14.5678 4.76572L14.5618 4.7861C13.9131 4.30134 13.005 4 12 4C10.995 4 10.0869 4.30134 9.43821 4.7861L9.43225 4.76572C9.43225 4.76572 7.8069 4.97971 6.59012 5.6246C6.59012 5.6246 4.01044 6.81539 3.16943 9.58857C3.16943 9.58857 2.46561 11.6397 3.92693 13.3371C4.09842 12.3472 4.56365 10.5901 5.82367 8.12119C5.9713 7.83295 6.32917 7.7165 6.62293 7.85916C6.91817 8.00328 7.03747 8.35265 6.89133 8.63943C5.03187 12.2846 5.01994 14.2411 5.01994 14.26C5.01994 14.26 5.01994 14.26 5.01994 14.2615V15.758C4.97372 17.106 5.69394 18.387 6.91221 19.0217C7.95452 19.5647 9.55303 20 12 20C14.447 20 16.0455 19.5647 17.0878 19.0217C18.3061 18.3856 19.0248 17.106 18.9786 15.758V14.2615C18.9786 14.2615 18.9786 14.26 18.9786 14.2586L18.9801 14.26ZM14.3739 9.63661C14.775 9.63661 15.1001 10.0733 15.1001 10.6134C15.1001 11.1535 14.775 11.5902 14.3739 11.5902C13.9728 11.5902 13.6477 11.1535 13.6477 10.6134C13.6477 10.0733 13.9728 9.63661 14.3739 9.63661ZM9.6261 9.63661C10.0272 9.63661 10.3523 10.0733 10.3523 10.6134C10.3523 11.1535 10.0272 11.5902 9.6261 11.5902C9.22498 11.5902 8.89991 11.1535 8.89991 10.6134C8.89991 10.0733 9.22498 9.63661 9.6261 9.63661ZM15.8382 16.7741C15.3953 17.451 14.8153 17.863 14.113 18.0013C13.94 18.0348 13.7685 18.0493 13.603 18.0493C12.9409 18.0493 12.3519 17.8179 12 17.6417C11.6481 17.8179 11.0591 18.0493 10.397 18.0493C10.23 18.0493 10.06 18.0348 9.88705 18.0013C9.18472 17.863 8.60466 17.4495 8.16179 16.7741C7.98434 16.5033 8.06636 16.1438 8.34371 15.9705C8.62106 15.7973 8.99087 15.8774 9.16682 16.1481C9.43076 16.5514 9.74091 16.7843 10.1167 16.86C10.6058 16.9575 11.1083 16.7755 11.4035 16.6329V15.627C11.4035 15.6037 11.408 15.5818 11.411 15.56C10.7087 15.397 10.2047 14.9413 10.2047 14.3139C10.2047 13.522 11.0084 13.2861 12.0015 13.2861C12.9946 13.2861 13.7983 13.5205 13.7983 14.3139C13.7983 14.9413 13.2943 15.397 12.592 15.56C12.595 15.5818 12.5994 15.6037 12.5994 15.627V16.6329C12.8932 16.7741 13.3972 16.9575 13.8863 16.8585C14.2621 16.7828 14.5722 16.5499 14.8362 16.1467C15.0136 15.8759 15.3819 15.7958 15.6593 15.9691C15.9366 16.1423 16.0186 16.5019 15.8412 16.7726L15.8382 16.7741Z" fill="#AFCBFB"/>
</svg>
