<svg width="24" height="24" viewBox="0 0 24 24" fill="none" xmlns="http://www.w3.org/2000/svg">
<path d="M8.78994 17.7099C8.8829 17.8037 8.9935 17.8781 9.11536 17.9288C9.23722 17.9796 9.36793 18.0057 9.49994 18.0057C9.63195 18.0057 9.76266 17.9796 9.88452 17.9288C10.0064 17.8781 10.117 17.8037 10.2099 17.7099L15.2099 12.7099C15.3037 12.617 15.3781 12.5064 15.4288 12.3845C15.4796 12.2627 15.5057 12.132 15.5057 11.9999C15.5057 11.8679 15.4796 11.7372 15.4288 11.6154C15.3781 11.4935 15.3037 11.3829 15.2099 11.2899L10.2099 6.28994C10.117 6.19621 10.0064 6.12182 9.88452 6.07105C9.76266 6.02028 9.63195 5.99414 9.49994 5.99414C9.36793 5.99414 9.23722 6.02028 9.11536 6.07105C8.9935 6.12182 8.8829 6.19621 8.78994 6.28994C8.69621 6.3829 8.62182 6.4935 8.57105 6.61536C8.52028 6.73722 8.49414 6.86793 8.49414 6.99994C8.49414 7.13195 8.52028 7.26266 8.57105 7.38452C8.62182 7.50637 8.69621 7.61697 8.78994 7.70994L13.0899 11.9999L8.78994 16.2899C8.69621 16.3829 8.62182 16.4935 8.57105 16.6154C8.52028 16.7372 8.49414 16.8679 8.49414 16.9999C8.49414 17.132 8.52028 17.2627 8.57105 17.3845C8.62182 17.5064 8.69621 17.617 8.78994 17.7099Z" fill="#A5B4C5"/>
</svg>
