<svg width="24" height="24" viewBox="0 0 24 24" fill="none" xmlns="http://www.w3.org/2000/svg">
<path d="M8.79189 17.7099C8.88485 17.8037 8.99546 17.8781 9.11732 17.9288C9.23917 17.9796 9.36988 18.0057 9.50189 18.0057C9.6339 18.0057 9.76461 17.9796 9.88647 17.9288C10.0083 17.8781 10.1189 17.8037 10.2119 17.7099L15.2119 12.7099C15.3056 12.617 15.38 12.5064 15.4308 12.3845C15.4816 12.2627 15.5077 12.132 15.5077 11.9999C15.5077 11.8679 15.4816 11.7372 15.4308 11.6154C15.38 11.4935 15.3056 11.3829 15.2119 11.2899L10.2119 6.28994C10.1189 6.19621 10.0083 6.12182 9.88647 6.07105C9.76461 6.02028 9.6339 5.99414 9.50189 5.99414C9.36988 5.99414 9.23918 6.02028 9.11732 6.07105C8.99546 6.12182 8.88486 6.19621 8.79189 6.28994C8.69816 6.3829 8.62377 6.4935 8.573 6.61536C8.52223 6.73722 8.49609 6.86793 8.49609 6.99994C8.49609 7.13195 8.52223 7.26266 8.573 7.38452C8.62377 7.50637 8.69816 7.61697 8.79189 7.70994L13.0919 11.9999L8.79189 16.2899C8.69816 16.3829 8.62377 16.4935 8.573 16.6154C8.52223 16.7372 8.49609 16.8679 8.49609 16.9999C8.49609 17.132 8.52223 17.2627 8.573 17.3845C8.62377 17.5064 8.69816 17.617 8.79189 17.7099Z" fill="#A5B4C5"/>
</svg>
