<svg width="25" height="24" viewBox="0 0 25 24" fill="none" xmlns="http://www.w3.org/2000/svg">
<path d="M13.1 2.2C12.9269 2.07018 12.7164 2 12.5 2C12.2836 2 12.0731 2.07018 11.9 2.2C11.4834 2.51918 11.0992 2.87858 10.753 3.273C10.23 3.862 9.5 4.855 9.5 6C9.5 6.79565 9.81607 7.55871 10.3787 8.12132C10.9413 8.68393 11.7044 9 12.5 9H6.5C5.70435 9 4.94129 9.31607 4.37868 9.87868C3.81607 10.4413 3.5 11.2044 3.5 12V14C3.5 15.236 4.911 15.942 5.9 15.2L6.567 14.7C6.7401 14.5702 6.95063 14.5 7.167 14.5C7.38337 14.5 7.5939 14.5702 7.767 14.7L8.033 14.9C8.55229 15.2895 9.18389 15.5 9.833 15.5C10.4821 15.5 11.1137 15.2895 11.633 14.9L11.9 14.7C12.0731 14.5702 12.2836 14.5 12.5 14.5C12.7164 14.5 12.9269 14.5702 13.1 14.7L13.367 14.9C13.8863 15.2895 14.5179 15.5 15.167 15.5C15.8161 15.5 16.4477 15.2895 16.967 14.9L17.233 14.7C17.4061 14.5702 17.6166 14.5 17.833 14.5C18.0494 14.5 18.2599 14.5702 18.433 14.7L19.1 15.2C20.089 15.942 21.5 15.236 21.5 14V12C21.5 11.2044 21.1839 10.4413 20.6213 9.87868C20.0587 9.31607 19.2956 9 18.5 9H12.5C13.2956 9 14.0587 8.68393 14.6213 8.12132C15.1839 7.55871 15.5 6.79565 15.5 6C15.5 4.855 14.77 3.862 14.247 3.273C13.901 2.883 13.517 2.513 13.1 2.2ZM4.5 17.415V20C4.5 20.5304 4.71071 21.0391 5.08579 21.4142C5.46086 21.7893 5.96957 22 6.5 22H18.5C19.0304 22 19.5391 21.7893 19.9142 21.4142C20.2893 21.0391 20.5 20.5304 20.5 20V17.415C20.2673 17.4991 20.0172 17.5234 19.7726 17.4859C19.528 17.4483 19.2968 17.35 19.1 17.2L18.433 16.7C18.2599 16.5702 18.0494 16.5 17.833 16.5C17.6166 16.5 17.4061 16.5702 17.233 16.7L16.967 16.9C16.4477 17.2895 15.8161 17.5 15.167 17.5C14.5179 17.5 13.8863 17.2895 13.367 16.9L13.1 16.7C12.9269 16.5702 12.7164 16.5 12.5 16.5C12.2836 16.5 12.0731 16.5702 11.9 16.7L11.633 16.9C11.1137 17.2895 10.4821 17.5 9.833 17.5C9.18389 17.5 8.55229 17.2895 8.033 16.9L7.767 16.7C7.5939 16.5702 7.38337 16.5 7.167 16.5C6.95063 16.5 6.7401 16.5702 6.567 16.7L5.9 17.2C5.70322 17.35 5.47196 17.4483 5.22739 17.4859C4.98282 17.5234 4.73273 17.4991 4.5 17.415Z" fill="#AFCBFB"/>
</svg>
