<svg width="67" height="67" viewBox="0 0 67 67" fill="none" xmlns="http://www.w3.org/2000/svg">
<path d="M26.069 44.6398C34.8807 44.1504 41.875 36.8505 41.875 27.9165C41.875 18.6657 34.3758 11.1665 25.125 11.1665C15.8742 11.1665 8.375 18.6657 8.375 27.9165C8.375 31.2126 9.32678 34.2862 10.9709 36.8776L9.78719 40.4289L9.78531 40.4341C9.33192 41.7943 9.10512 42.4747 9.26661 42.9275C9.40734 43.3222 9.7197 43.6332 10.1143 43.774C10.5657 43.9349 11.2413 43.7097 12.5923 43.2594L12.6116 43.2535L16.1639 42.0698C18.7553 43.7139 21.829 44.666 25.1252 44.666C25.4419 44.666 25.7566 44.6572 26.069 44.6398ZM26.069 44.6398C26.0692 44.6405 26.0687 44.6392 26.069 44.6398ZM26.069 44.6398C28.3607 51.1596 34.5723 55.8336 41.8754 55.8336C45.1715 55.8336 48.2446 54.8807 50.8358 53.2364L54.3873 54.4202L54.3943 54.4216C55.7542 54.8749 56.4359 55.1021 56.8887 54.9406C57.2833 54.7999 57.5917 54.4888 57.7325 54.0941C57.8942 53.6407 57.668 52.9595 57.2134 51.5956L56.0296 48.0443L56.4261 47.3873C57.826 44.9399 58.6235 42.1046 58.6235 39.0832C58.6235 29.8324 51.1257 22.3332 41.875 22.3332L41.248 22.3447L40.9317 22.3602" stroke="#ADC3F3" stroke-width="2" stroke-linecap="round" stroke-linejoin="round"/>
</svg>
