<svg width="48" height="48" viewBox="0 0 48 48" fill="none" xmlns="http://www.w3.org/2000/svg">
<path d="M27.785 17.349C27.8537 17.2727 27.9074 17.1829 27.943 17.0848C27.9786 16.9866 27.9955 16.8821 27.9927 16.7771C27.9899 16.6721 27.9674 16.5688 27.9265 16.4729C27.8857 16.3771 27.8272 16.2906 27.7546 16.2185C27.6819 16.1463 27.5964 16.0899 27.503 16.0525C27.4096 16.0151 27.31 15.9974 27.2101 16.0003C27.1101 16.0033 27.0117 16.0269 26.9205 16.0698C26.8292 16.1127 26.7469 16.1741 26.6782 16.2505L20.2081 23.4462C20.0744 23.5947 20 23.7912 20 23.9955C20 24.1998 20.0744 24.3963 20.2081 24.5448L26.6782 31.7414C26.7465 31.8194 26.8288 31.8824 26.9203 31.9267C27.0119 31.971 27.111 31.9957 27.2118 31.9995C27.3126 32.0033 27.413 31.9859 27.5074 31.9486C27.6018 31.9112 27.6881 31.8545 27.7614 31.7818C27.8347 31.7091 27.8936 31.6218 27.9345 31.525C27.9754 31.4282 27.9976 31.3238 27.9998 31.2179C28.002 31.112 27.9842 31.0067 27.9473 30.9081C27.9104 30.8095 27.8552 30.7196 27.785 30.6436L21.8081 23.9955L27.785 17.349Z" fill="#D9E0ED"/>
</svg>
