<svg width="48" height="48" viewBox="0 0 48 48" fill="none" xmlns="http://www.w3.org/2000/svg">
<path d="M20.215 30.651C20.1463 30.7273 20.0926 30.8171 20.057 30.9152C20.0214 31.0134 20.0045 31.1179 20.0073 31.2229C20.0101 31.3279 20.0326 31.4312 20.0735 31.5271C20.1143 31.6229 20.1728 31.7094 20.2454 31.7815C20.3181 31.8537 20.4036 31.9101 20.497 31.9475C20.5904 31.9849 20.69 32.0026 20.7899 31.9997C20.8899 31.9967 20.9883 31.9731 21.0795 31.9302C21.1708 31.8873 21.2531 31.8259 21.3218 31.7495L27.7919 24.5538C27.9255 24.4053 28 24.2088 28 24.0045C28 23.8002 27.9255 23.6037 27.7919 23.4552L21.3218 16.2586C21.2535 16.1806 21.1712 16.1176 21.0797 16.0733C20.9881 16.029 20.889 16.0043 20.7882 16.0005C20.6874 15.9967 20.587 16.0141 20.4926 16.0514C20.3982 16.0888 20.3119 16.1455 20.2386 16.2182C20.1653 16.2909 20.1064 16.3782 20.0655 16.475C20.0246 16.5718 20.0024 16.6762 20.0002 16.7821C19.998 16.888 20.0158 16.9933 20.0527 17.0919C20.0896 17.1905 20.1448 17.2804 20.215 17.3564L26.1919 24.0045L20.215 30.651Z" fill="#D9E0ED"/>
</svg>
