<svg width="24" height="24" viewBox="0 0 24 24" fill="none" xmlns="http://www.w3.org/2000/svg">
<path d="M9.40039 4.70508H14.5996C15.7361 4.70508 16.5287 4.70547 17.1455 4.75586C17.7506 4.8053 18.0987 4.89796 18.3623 5.03223C18.9265 5.31981 19.3853 5.77853 19.6729 6.34277C19.8071 6.60639 19.8998 6.95444 19.9492 7.55957C19.9996 8.17638 20 8.96907 20 10.1055V11.3047C20 12.4412 19.9996 13.2338 19.9492 13.8506C19.8998 14.4557 19.8071 14.8038 19.6729 15.0674C19.4211 15.5613 19.0383 15.9745 18.5684 16.2627L18.3623 16.3779C18.0987 16.5122 17.7506 16.6049 17.1455 16.6543C16.5287 16.7047 15.7361 16.7051 14.5996 16.7051H7.41406C6.88372 16.7052 6.37498 16.916 6 17.291L4 19.291V10.1055L4.00684 8.6377C4.01333 8.22039 4.02558 7.86803 4.05078 7.55957C4.10023 6.95444 4.19288 6.60639 4.32715 6.34277C4.61471 5.77853 5.07347 5.31981 5.6377 5.03223C5.90131 4.89796 6.24937 4.8053 6.85449 4.75586C7.47131 4.70547 8.26394 4.70508 9.40039 4.70508Z" stroke="#7D8799" stroke-width="2"/>
</svg>
