<svg width="47" height="45" viewBox="0 0 47 45" fill="none" xmlns="http://www.w3.org/2000/svg">
<path d="M41.125 21.5626C41.1317 24.0373 40.5278 26.4786 39.3625 28.6876C37.9808 31.3346 35.8566 33.561 33.2279 35.1175C30.5992 36.6739 27.5699 37.4989 24.4792 37.5001C21.8944 37.5065 19.3446 36.9283 17.0375 35.8126L5.875 39.3751L9.59583 28.6876C8.43049 26.4786 7.82659 24.0373 7.83333 21.5626C7.83453 18.6033 8.6962 15.7029 10.3218 13.1861C11.9475 10.6693 14.2728 8.63549 17.0375 7.31255C19.3446 6.1968 21.8944 5.6186 24.4792 5.62505H25.4583C29.5402 5.84066 33.3955 7.49023 36.2862 10.2579C39.1769 13.0256 40.8998 16.7169 41.125 20.6251V21.5626Z" stroke="white" stroke-width="4" stroke-linecap="round" stroke-linejoin="round"/>
</svg>
