<svg width="20" height="20" viewBox="0 0 20 20" fill="none" xmlns="http://www.w3.org/2000/svg">
<path d="M4.44466 10.5555V6.11108H2.77799C2.33597 6.11108 1.91204 6.28668 1.59948 6.59924C1.28692 6.9118 1.11133 7.33572 1.11133 7.77775V17.7778C1.11215 17.8809 1.1417 17.9818 1.19665 18.0692C1.2516 18.1565 1.32978 18.2268 1.42244 18.2722C1.51171 18.3128 1.61013 18.329 1.7077 18.3193C1.80528 18.3095 1.89854 18.2741 1.97799 18.2166L4.83911 16.1111H12.3058C12.5163 16.1173 12.7259 16.0802 12.9216 16.0022C13.1172 15.9241 13.2948 15.8067 13.4432 15.6572C13.5916 15.5077 13.7078 15.3294 13.7845 15.1332C13.8612 14.937 13.8968 14.7272 13.8891 14.5166V13.8889H7.778C6.89394 13.8889 6.04609 13.5377 5.42097 12.9126C4.79585 12.2874 4.44466 11.4396 4.44466 10.5555Z" fill="#5D636F"/>
<path d="M17.2224 2.22223H7.77799C7.33597 2.22223 6.91204 2.39782 6.59948 2.71038C6.28692 3.02295 6.11133 3.44687 6.11133 3.8889V10.5556C6.11133 10.9976 6.28692 11.4215 6.59948 11.7341C6.91204 12.0466 7.33597 12.2222 7.77799 12.2222H15.3058L17.9613 14.2833C18.0403 14.3417 18.1333 14.3781 18.2309 14.3888C18.3284 14.3996 18.4271 14.3843 18.5169 14.3445C18.6114 14.2994 18.6913 14.2286 18.7473 14.1401C18.8034 14.0517 18.8333 13.9492 18.8336 13.8445V3.8889C18.8338 3.45633 18.6658 3.04061 18.3652 2.7296C18.0646 2.41859 17.6548 2.23665 17.2224 2.22223Z" fill="#5D636F"/>
</svg>
