<svg width="160" height="160" viewBox="0 0 160 160" fill="none" xmlns="http://www.w3.org/2000/svg">
<rect width="160" height="160" rx="80" fill="#4A576E"/>
<g clip-path="url(#clip0_489_17499)">
<path d="M92.8678 39.568C92.4598 39.336 92.0518 39.12 91.6518 38.92C91.6278 38.904 91.5958 38.896 91.5718 38.88C86.6438 36.408 82.3958 36.048 80.8838 36C80.8758 36 80.8678 36 80.8598 36C80.7558 36 80.6598 36 80.5798 36C80.5638 36 80.5478 36 80.5318 36C80.4678 36 80.4198 36 80.3798 36C80.3638 36 80.3638 36 80.3478 36C80.3158 36 80.2918 36 80.2918 36C80.2918 36 80.2678 36 80.2358 36C80.2278 36 80.2198 36 80.2038 36C80.1638 36 80.1158 36 80.0518 36C80.0358 36 80.0198 36 80.0038 36C79.9238 36 79.8358 36 79.7238 36C79.7158 36 79.7078 36 79.6998 36C78.1958 36.04 73.9478 36.4 69.0118 38.872C68.9878 38.888 68.9558 38.896 68.9318 38.912C68.5318 39.112 68.1238 39.328 67.7158 39.56C67.6678 39.56 67.6198 39.576 67.5638 39.584C60.8438 44.072 55.2278 52.352 55.2278 52.352L54.9638 52.728C55.0918 52.6 55.2118 52.48 55.3398 52.352C55.3398 52.352 55.2998 52.408 55.2438 52.48C55.2278 52.504 55.2198 52.512 55.2038 52.536C55.1798 52.576 55.1478 52.624 55.1078 52.672C55.0838 52.704 55.0598 52.736 55.0358 52.776C54.9958 52.832 54.9478 52.904 54.8998 52.976C54.8678 53.024 54.8438 53.064 54.8118 53.112C54.7558 53.192 54.6998 53.28 54.6438 53.376C54.6118 53.432 54.5718 53.48 54.5398 53.536C54.4758 53.64 54.4038 53.752 54.3238 53.872C54.2918 53.928 54.2518 53.984 54.2198 54.04C54.1398 54.176 54.0518 54.312 53.9638 54.464C53.9318 54.52 53.8918 54.576 53.8598 54.632C53.7638 54.792 53.6598 54.96 53.5558 55.144C53.5318 55.184 53.5078 55.232 53.4838 55.272C52.8198 56.408 52.0278 57.864 51.1718 59.632C51.1638 59.656 51.1478 59.68 51.1398 59.696C50.9798 60.024 50.8198 60.368 50.6598 60.712C50.6358 60.768 50.6118 60.824 50.5798 60.88C50.4198 61.216 50.2678 61.568 50.1078 61.928C50.0758 62 50.0438 62.072 50.0118 62.152C49.8518 62.512 49.6998 62.872 49.5398 63.248C49.5078 63.328 49.4758 63.408 49.4438 63.488C49.2838 63.872 49.1238 64.264 48.9558 64.672C48.9318 64.736 48.8998 64.808 48.8758 64.872C48.7078 65.296 48.5398 65.728 48.3718 66.176C48.3638 66.208 48.3478 66.232 48.3398 66.264C47.2358 69.184 46.1638 72.544 45.2438 76.312C45.2198 76.408 45.1958 76.496 45.1718 76.592C45.0438 77.128 44.9158 77.68 44.7958 78.232C44.7638 78.368 44.7318 78.504 44.7078 78.648C44.5878 79.184 44.4758 79.736 44.3638 80.288C44.3318 80.448 44.2998 80.608 44.2678 80.768C44.1638 81.32 44.0598 81.88 43.9558 82.448C43.9238 82.608 43.8998 82.776 43.8758 82.944C43.7798 83.52 43.6838 84.104 43.5958 84.696C43.5718 84.84 43.5558 84.984 43.5318 85.136C43.4438 85.76 43.3558 86.384 43.2758 87.024C43.2678 87.104 43.2598 87.184 43.2438 87.264C42.9238 89.856 42.6998 92.576 42.5878 95.424C42.5878 95.48 42.5878 95.528 42.5878 95.584C42.5718 95.936 42.5638 96.288 42.5478 96.64C42.5478 96.64 42.5478 96.648 42.5478 96.656C42.5238 97.616 42.5078 98.584 42.5078 99.568C42.5078 99.656 42.5078 99.744 42.5078 99.832C42.5078 100.888 42.5318 101.952 42.5718 103.032C42.5718 103.032 42.5158 103.768 42.6758 104.976C42.6998 105.176 42.7398 105.392 42.7798 105.616C42.8998 106.288 43.0918 107.072 43.3878 107.92C43.4838 108.2 43.5958 108.496 43.7158 108.792C43.7798 108.944 43.8438 109.088 43.9078 109.24C44.1798 109.848 44.4998 110.472 44.8918 111.12C45.0838 111.44 45.2918 111.768 45.5238 112.088C45.7478 112.416 45.9958 112.744 46.2598 113.072C46.6518 113.568 47.0918 114.056 47.5718 114.552C47.8918 114.88 48.2358 115.208 48.5958 115.528C48.9558 115.848 49.3478 116.176 49.7558 116.488C50.1638 116.808 50.5958 117.12 51.0518 117.424C51.7398 117.888 52.4758 118.336 53.2758 118.776C54.3398 119.352 55.5158 119.904 56.7958 120.424C59.0518 121.32 61.6518 122.104 64.6758 122.712C67.6918 123.32 71.1238 123.752 75.0198 123.96C76.6918 124.048 78.4438 124.096 80.2918 124.096C82.1398 124.096 83.8918 124.048 85.5638 123.96C89.4598 123.752 92.8918 123.32 95.9078 122.712C98.9238 122.104 101.532 121.328 103.788 120.424C105.076 119.912 106.244 119.36 107.308 118.776C108.108 118.344 108.844 117.888 109.532 117.424C109.988 117.112 110.42 116.8 110.828 116.488C111.236 116.168 111.62 115.848 111.988 115.528C112.348 115.208 112.692 114.88 113.012 114.552C113.492 114.064 113.932 113.568 114.324 113.072C114.588 112.744 114.828 112.416 115.06 112.088C115.284 111.76 115.5 111.44 115.692 111.12C116.076 110.48 116.404 109.848 116.676 109.24C116.74 109.088 116.804 108.936 116.868 108.792C116.988 108.496 117.1 108.208 117.196 107.92C117.492 107.072 117.684 106.296 117.804 105.616C117.844 105.392 117.876 105.176 117.908 104.976C118.076 103.776 118.012 103.032 118.012 103.032C118.052 101.952 118.068 100.888 118.076 99.832C118.076 99.744 118.076 99.656 118.076 99.568C118.076 98.584 118.068 97.616 118.036 96.656C118.036 96.656 118.036 96.648 118.036 96.64C118.028 96.288 118.012 95.936 117.996 95.584C117.996 95.528 117.996 95.48 117.996 95.424C117.884 92.576 117.66 89.856 117.34 87.264C117.332 87.184 117.324 87.104 117.308 87.024C117.228 86.384 117.14 85.76 117.052 85.136C117.028 84.992 117.012 84.84 116.988 84.696C116.9 84.104 116.804 83.52 116.708 82.944C116.684 82.776 116.652 82.616 116.628 82.448C116.532 81.88 116.428 81.32 116.316 80.768C116.284 80.608 116.252 80.448 116.22 80.288C116.108 79.736 115.996 79.184 115.876 78.648C115.844 78.512 115.812 78.376 115.788 78.232C115.668 77.68 115.54 77.128 115.412 76.592C115.388 76.496 115.364 76.408 115.34 76.312C114.412 72.552 113.34 69.192 112.244 66.264C112.236 66.232 112.22 66.208 112.212 66.176C112.044 65.728 111.876 65.296 111.708 64.872C111.684 64.808 111.652 64.736 111.628 64.672C111.468 64.264 111.308 63.872 111.14 63.488C111.108 63.408 111.076 63.328 111.044 63.248C110.884 62.872 110.732 62.504 110.572 62.152C110.54 62.08 110.508 62.008 110.476 61.928C110.316 61.568 110.156 61.224 110.004 60.88C109.98 60.824 109.956 60.768 109.924 60.712C109.764 60.36 109.604 60.024 109.444 59.696C109.436 59.672 109.42 59.648 109.412 59.632C108.556 57.864 107.764 56.408 107.1 55.272C107.076 55.232 107.052 55.184 107.028 55.144C106.924 54.96 106.82 54.8 106.724 54.632C106.692 54.576 106.652 54.52 106.62 54.464C106.532 54.312 106.444 54.176 106.364 54.04C106.332 53.984 106.292 53.928 106.26 53.872C106.188 53.752 106.116 53.64 106.044 53.536C106.004 53.48 105.972 53.424 105.94 53.376C105.876 53.28 105.82 53.192 105.772 53.112C105.74 53.064 105.708 53.016 105.684 52.976C105.636 52.904 105.588 52.84 105.548 52.776C105.524 52.736 105.5 52.704 105.476 52.672C105.476 52.672 105.476 52.664 105.468 52.656L105.252 52.352C105.252 52.352 99.6118 44.04 92.8838 39.552L92.8678 39.568Z" fill="#B4CAF7"/>
<path d="M105.243 52.3679C116.835 63.4239 120.851 75.3999 122.235 81.9919C122.587 84.0719 122.883 86.2399 123.115 88.4959C126.603 83.7199 128.595 78.2479 128.595 72.4159C128.595 56.1919 113.251 42.6639 92.8672 39.5759C99.6032 44.0559 105.235 52.3759 105.235 52.3759L105.243 52.3679Z" fill="#4D7EEE"/>
<path d="M105.338 52.4959C105.282 52.4159 105.242 52.3679 105.242 52.3679L105.458 52.6719C105.426 52.6319 105.402 52.5839 105.378 52.5519C105.362 52.5279 105.354 52.5119 105.338 52.4959Z" fill="#FF0000"/>
<path d="M67.576 39.592C47.272 42.728 32 56.224 32 72.408C32 78.24 33.992 83.72 37.48 88.488C37.712 86.24 38.008 84.064 38.36 81.984C39.728 75.472 43.688 63.68 54.976 52.736L55.24 52.36C55.24 52.36 60.856 44.072 67.576 39.592Z" fill="#4D7EEE"/>
<path d="M80.2937 120.832C95.1303 120.832 107.158 112.093 107.158 101.312C107.158 90.5314 95.1303 81.792 80.2937 81.792C65.4571 81.792 53.4297 90.5314 53.4297 101.312C53.4297 112.093 65.4571 120.832 80.2937 120.832Z" fill="#E9F1FF"/>
<path d="M96.5264 104.792C94.6544 107.72 92.1984 109.512 89.2304 110.112C88.5024 110.256 87.7744 110.32 87.0704 110.32C84.2704 110.32 81.7824 109.312 80.2944 108.552C78.8064 109.312 76.3184 110.32 73.5184 110.32C72.8144 110.32 72.0944 110.256 71.3584 110.112C68.3904 109.512 65.9344 107.728 64.0624 104.792C63.3104 103.616 63.6544 102.056 64.8304 101.304C66.0064 100.56 67.5664 100.896 68.3184 102.072C69.4304 103.816 70.7504 104.824 72.3344 105.152C74.3984 105.576 76.5264 104.784 77.7744 104.168V99.8081C77.7744 99.7121 77.7904 99.6161 77.8064 99.5201C74.8384 98.8161 72.7024 96.8401 72.7024 94.1201C72.7024 90.6881 76.1024 89.6721 80.3024 89.6721C84.5024 89.6721 87.9024 90.6881 87.9024 94.1201C87.9024 96.8401 85.7664 98.8081 82.7984 99.5201C82.8064 99.6161 82.8304 99.7121 82.8304 99.8081V104.168C84.0704 104.776 86.2064 105.576 88.2704 105.152C89.8544 104.824 91.1744 103.816 92.2864 102.072C93.0384 100.896 94.5984 100.552 95.7744 101.304C96.9504 102.056 97.2944 103.616 96.5424 104.792H96.5264Z" fill="#1B1F45"/>
<path d="M93.0366 77.704C95.1883 77.704 96.9326 75.3007 96.9326 72.336C96.9326 69.3714 95.1883 66.968 93.0366 66.968C90.8849 66.968 89.1406 69.3714 89.1406 72.336C89.1406 75.3007 90.8849 77.704 93.0366 77.704Z" fill="#1B1F45"/>
<path d="M67.5601 77.704C69.7118 77.704 71.4561 75.3007 71.4561 72.336C71.4561 69.3714 69.7118 66.968 67.5601 66.968C65.4084 66.968 63.6641 69.3714 63.6641 72.336C63.6641 75.3007 65.4084 77.704 67.5601 77.704Z" fill="#1B1F45"/>
</g>
<defs>
<clipPath id="clip0_489_17499">
<rect width="96.6" height="88.08" fill="white" transform="translate(32 36)"/>
</clipPath>
</defs>
</svg>
