<svg width="54" height="54" viewBox="0 0 54 54" fill="none" xmlns="http://www.w3.org/2000/svg">
<path d="M14.0285 29.7465L26.3882 41.3571C26.6779 41.6293 26.8228 41.7654 26.9996 41.7654C27.1764 41.7654 27.3213 41.6293 27.611 41.3572L27.611 41.3572L39.9707 29.7465C40.5322 29.2191 40.813 28.9553 41.0364 28.7075C43.4751 26.0024 43.7899 21.9954 41.8035 18.9426C41.6215 18.6629 41.3854 18.3586 40.9131 17.7499L40.3816 17.0649L40.3815 17.0647C40.1479 16.7637 40.0311 16.6132 39.9433 16.5085C36.6778 12.6164 30.5076 13.2809 28.1455 17.779C28.082 17.8999 28 18.0719 27.8358 18.4159L27.8358 18.4159C27.8102 18.4695 27.7974 18.4963 27.7886 18.513C27.453 19.1459 26.5463 19.1459 26.2107 18.513C26.2018 18.4963 26.189 18.4695 26.1634 18.4159C25.9993 18.0719 25.9172 17.8999 25.8537 17.779C23.4916 13.2809 17.3214 12.6164 14.0559 16.5085C13.9681 16.6132 13.8513 16.7637 13.6176 17.0648L13.0861 17.7499C12.6138 18.3586 12.3777 18.6629 12.1958 18.9426C10.2093 21.9954 10.5241 26.0024 12.9628 28.7075C13.1862 28.9553 13.467 29.219 14.0284 29.7464L14.0285 29.7465Z" fill="#D793FF" stroke="#D793FF" stroke-width="3"/>
</svg>
