<svg width="32" height="32" viewBox="0 0 32 32" fill="none" xmlns="http://www.w3.org/2000/svg">
<path d="M12.12 12.0001C12.4334 11.109 13.0522 10.3576 13.8666 9.87893C14.681 9.40029 15.6385 9.22533 16.5695 9.38503C17.5006 9.54473 18.345 10.0288 18.9534 10.7515C19.5617 11.4741 19.8947 12.3888 19.8933 13.3334C19.8933 16.0001 15.8933 17.3334 15.8933 17.3334M16 22.6667H16.0133M29.3333 16.0001C29.3333 23.3639 23.3638 29.3334 16 29.3334C8.63616 29.3334 2.66663 23.3639 2.66663 16.0001C2.66663 8.63628 8.63616 2.66675 16 2.66675C23.3638 2.66675 29.3333 8.63628 29.3333 16.0001Z" stroke="white" stroke-width="3" stroke-linecap="round" stroke-linejoin="round"/>
</svg>
