<svg width="24" height="24" viewBox="0 0 24 24" fill="none" xmlns="http://www.w3.org/2000/svg">
<path d="M12 3C7.02863 3 3 7.02975 3 12C3 16.9703 7.02863 21 12 21C16.9714 21 21 16.9703 21 12C21 7.02975 16.9714 3 12 3ZM16.1704 14.5796C16.3813 14.7906 16.4998 15.0767 16.4998 15.375C16.4998 15.6733 16.3813 15.9594 16.1704 16.1704C15.9594 16.3813 15.6733 16.4998 15.375 16.4998C15.0767 16.4998 14.7906 16.3813 14.5796 16.1704L12 13.5907L9.42037 16.1704C9.31614 16.2752 9.19221 16.3584 9.05571 16.4152C8.91921 16.4719 8.77283 16.5012 8.625 16.5012C8.47717 16.5012 8.33079 16.4719 8.19429 16.4152C8.05779 16.3584 7.93386 16.2752 7.82963 16.1704C7.61872 15.9594 7.50024 15.6733 7.50024 15.375C7.50024 15.0767 7.61872 14.7906 7.82963 14.5796L10.4093 12L7.82963 9.42037C7.61868 9.20943 7.50017 8.92332 7.50017 8.625C7.50017 8.32668 7.61868 8.04057 7.82963 7.82963C8.04057 7.61868 8.32668 7.50017 8.625 7.50017C8.92332 7.50017 9.20943 7.61868 9.42037 7.82963L12 10.4093L14.5796 7.82963C14.7906 7.61868 15.0767 7.50017 15.375 7.50017C15.6733 7.50017 15.9594 7.61868 16.1704 7.82963C16.3813 8.04057 16.4998 8.32668 16.4998 8.625C16.4998 8.92332 16.3813 9.20943 16.1704 9.42037L13.5907 12L16.1704 14.5796Z" fill="#A5B4C5"/>
</svg>
