<svg width="142" height="160" viewBox="0 0 142 160" fill="none" xmlns="http://www.w3.org/2000/svg">
<path d="M115.571 30.6646L115.913 31.5236C116.07 31.92 116.383 32.2321 116.775 32.3862L117.634 32.7276C118.739 33.1644 118.739 34.7282 117.634 35.165L116.775 35.5064C116.379 35.6642 116.067 35.9763 115.913 36.369L115.571 37.228C115.134 38.3329 113.571 38.3329 113.134 37.228L112.792 36.369C112.635 35.9726 112.323 35.6606 111.93 35.5064L111.071 35.165C109.966 34.7282 109.966 33.1644 111.071 32.7276L111.93 32.3862C112.326 32.2284 112.638 31.9164 112.792 31.5236L113.134 30.6646C113.571 29.5597 115.134 29.5597 115.571 30.6646Z" fill="#FFF8B3"/>
<path d="M5.33006 43.3092L5.67144 44.1681C5.82929 44.5646 6.1413 44.8766 6.53408 45.0308L7.39304 45.3721C8.49796 45.809 8.49796 47.3727 7.39304 47.8095L6.53408 48.1509C6.13763 48.3088 5.82561 48.6208 5.67144 49.0136L5.33006 49.8725C4.89323 50.9775 3.32947 50.9775 2.89265 49.8725L2.55126 49.0136C2.39342 48.6171 2.0814 48.3051 1.68863 48.1509L0.829659 47.8095C-0.275251 47.3727 -0.275251 45.809 0.829659 45.3721L1.68863 45.0308C2.08507 44.8729 2.39709 44.5609 2.55126 44.1681L2.89265 43.3092C3.32947 42.2042 4.89323 42.2042 5.33006 43.3092Z" fill="#FFF8B3"/>
<path d="M130.085 10.1445L28.5325 48.1813L7.46582 17.3393" stroke="#FFF8B3" stroke-width="1.8354" stroke-miterlimit="10"/>
<path d="M78.9814 48.9297C78.9814 48.9297 94.2299 49.0875 110.224 60.8157C110.224 60.8157 139.289 82.5579 141.422 102.248C141.811 105.827 140.713 109.45 138.423 112.229C136.529 114.527 133.419 116.704 128.559 116.215C128.559 116.215 114.794 115.731 100 95.4901C85.2071 75.2493 78.9814 48.9297 78.9814 48.9297Z" fill="url(#paint0_linear_738_69160)"/>
<path d="M71.2693 48.9297C71.2693 48.9297 56.0208 49.0875 40.0271 60.8157C40.0271 60.8157 10.9617 82.5579 8.829 102.248C8.4399 105.827 9.53747 109.45 11.828 112.229C13.7222 114.527 16.8313 116.704 21.6915 116.215C21.6915 116.215 35.457 115.731 50.2503 95.4901C65.0436 75.2493 71.2693 48.9297 71.2693 48.9297Z" fill="url(#paint1_linear_738_69160)"/>
<path d="M124.33 114.992C124.323 114.956 124.319 114.915 124.312 114.875C124.257 114.486 124.194 114.1 124.125 113.719C119.969 88.6727 109.908 70.7959 109.908 70.7959V70.8106C103.759 57.7682 90.5002 48.7344 75.1269 48.7344C59.7536 48.7344 46.491 57.7645 40.3461 70.8106V70.7959C40.3461 70.7959 30.2808 88.6727 26.1254 113.719C26.0557 114.1 25.9933 114.486 25.9382 114.871C25.9309 114.912 25.9235 114.952 25.9199 114.989C25.729 116.35 25.6299 117.742 25.6299 119.159C25.6299 125.168 27.3992 130.762 30.4313 135.457C37.2149 146.961 54.6622 155.151 75.1196 155.151C95.5769 155.151 113.024 146.961 119.808 135.461C122.844 130.762 124.613 125.168 124.613 119.159C124.613 117.742 124.514 116.35 124.323 114.989L124.33 114.992Z" fill="#B4CAF7"/>
<path d="M75.127 159.999C103.842 159.999 127.12 144.126 127.12 124.546C127.12 104.966 103.842 89.0938 75.127 89.0938C46.4119 89.0938 23.1338 104.966 23.1338 124.546C23.1338 144.126 46.4119 159.999 75.127 159.999Z" fill="url(#paint2_radial_738_69160)"/>
<path d="M90.9888 95.9315C93.6669 95.9315 95.8379 92.9388 95.8379 89.247C95.8379 85.5553 93.6669 82.5625 90.9888 82.5625C88.3107 82.5625 86.1396 85.5553 86.1396 89.247C86.1396 92.9388 88.3107 95.9315 90.9888 95.9315Z" fill="url(#paint3_linear_738_69160)"/>
<path d="M59.2622 95.9315C61.9403 95.9315 64.1113 92.9388 64.1113 89.247C64.1113 85.5553 61.9403 82.5625 59.2622 82.5625C56.5841 82.5625 54.4131 85.5553 54.4131 89.247C54.4131 92.9388 56.5841 95.9315 59.2622 95.9315Z" fill="url(#paint4_linear_738_69160)"/>
<path d="M59.2624 88.7363C60.2071 88.7363 60.9729 87.6795 60.9729 86.3759C60.9729 85.0724 60.2071 84.0156 59.2624 84.0156C58.3176 84.0156 57.5518 85.0724 57.5518 86.3759C57.5518 87.6795 58.3176 88.7363 59.2624 88.7363Z" fill="white"/>
<path d="M90.9886 88.5283C91.8522 88.5283 92.5523 87.5635 92.5523 86.3735C92.5523 85.1835 91.8522 84.2188 90.9886 84.2188C90.1249 84.2188 89.4248 85.1835 89.4248 86.3735C89.4248 87.5635 90.1249 88.5283 90.9886 88.5283Z" fill="white"/>
<path d="M84.9837 116.173C84.9837 120.625 80.5714 123.551 75.1276 123.551C69.6838 123.551 65.2715 120.625 65.2715 116.173C65.2715 111.72 69.6838 110.398 75.1276 110.398C80.5714 110.398 84.9837 111.72 84.9837 116.173Z" fill="#1B1F45"/>
<path d="M75.1267 123.551V132.75C75.1267 132.75 63.872 142.378 57.0957 129.259" stroke="#1B1F45" stroke-width="3.58637" stroke-miterlimit="10" stroke-linecap="round"/>
<path d="M75.127 123.551V132.75C75.127 132.75 86.3816 142.378 93.1579 129.259" stroke="#1B1F45" stroke-width="3.58637" stroke-miterlimit="10" stroke-linecap="round"/>
<path d="M58.1273 90.4448L58.5018 90.6871C58.6009 90.7532 58.722 90.7752 58.8395 90.7568L59.28 90.6871C59.5773 90.6394 59.8232 90.9147 59.7462 91.201L59.6324 91.6342C59.603 91.748 59.614 91.8728 59.6691 91.9792L59.871 92.3757C60.0068 92.6436 59.8232 92.963 59.5259 92.9777L59.0817 93.0034C58.9643 93.0107 58.8505 93.0621 58.7661 93.1465L58.4504 93.4622C58.2375 93.6751 57.8777 93.598 57.7713 93.3191L57.6098 92.9043C57.5657 92.7941 57.4849 92.7024 57.3785 92.6473L56.982 92.4454C56.7141 92.3096 56.6774 91.9425 56.9086 91.7553L57.2537 91.4726C57.3455 91.3956 57.4079 91.2891 57.4262 91.1716L57.496 90.7311C57.5437 90.4338 57.8777 90.2833 58.131 90.4448H58.1273Z" fill="#E0D061"/>
<path d="M92.1231 90.4448L91.7487 90.6871C91.6496 90.7532 91.5285 90.7752 91.411 90.7568L90.9705 90.6871C90.6732 90.6394 90.4272 90.9147 90.5043 91.201L90.6181 91.6342C90.6475 91.748 90.6365 91.8728 90.5814 91.9792L90.3795 92.3757C90.2437 92.6436 90.4272 92.963 90.7246 92.9777L91.1687 93.0034C91.2862 93.0107 91.4 93.0621 91.4844 93.1465L91.8001 93.4622C92.013 93.6751 92.3728 93.598 92.4792 93.3191L92.6407 92.9043C92.6848 92.7941 92.7655 92.7024 92.872 92.6473L93.2684 92.4454C93.5364 92.3096 93.5731 91.9425 93.3418 91.7553L92.9968 91.4726C92.905 91.3956 92.8426 91.2891 92.8243 91.1716L92.7545 90.7311C92.7068 90.4338 92.3728 90.2833 92.1195 90.4448H92.1231Z" fill="#E0D061"/>
<path d="M70.7189 114.606C71.704 114.45 72.4359 113.904 72.3537 113.387C72.2715 112.871 71.4063 112.579 70.4213 112.736C69.4362 112.892 68.7043 113.438 68.7865 113.955C68.8687 114.471 69.7339 114.763 70.7189 114.606Z" fill="#59608E"/>
<path d="M132.262 1.17557L133.789 3.5102C134.197 4.13424 134.821 4.58942 135.544 4.78397L138.238 5.51446C140.048 6.00634 140.757 8.19047 139.582 9.65145L137.835 11.8282C137.368 12.4119 137.13 13.1424 137.167 13.8875L137.302 16.6737C137.394 18.5458 135.533 19.8966 133.782 19.2322L131.172 18.2411C130.475 17.9768 129.704 17.9768 129.006 18.2411L126.396 19.2322C124.645 19.8966 122.784 18.5458 122.876 16.6737L123.012 13.8875C123.049 13.1424 122.81 12.4082 122.344 11.8282L120.597 9.65145C119.422 8.19047 120.134 6.00267 121.94 5.51446L124.634 4.78397C125.354 4.58942 125.978 4.13424 126.389 3.5102L127.916 1.17557C128.944 -0.391858 131.242 -0.391858 132.27 1.17557H132.262Z" fill="url(#paint5_linear_738_69160)"/>
<path d="M30.1478 41.3024L31.282 43.035C31.5867 43.4976 32.0492 43.8353 32.5815 43.9784L34.5784 44.5217C35.9183 44.8851 36.4469 46.5076 35.5769 47.5905L34.2811 49.202C33.936 49.6351 33.7562 50.1784 33.7855 50.729L33.8846 52.7957C33.9507 54.1832 32.5742 55.1854 31.2747 54.6935L29.3402 53.9593C28.8226 53.7611 28.25 53.7611 27.7324 53.9593L25.7979 54.6935C24.4984 55.1854 23.1182 54.1869 23.1879 52.7957L23.2871 50.729C23.3127 50.1747 23.1365 49.6315 22.7915 49.202L21.4957 47.5905C20.6257 46.5076 21.1506 44.8851 22.4942 44.5217L24.4911 43.9784C25.027 43.8316 25.4895 43.4976 25.7905 43.035L26.9248 41.3024C27.6847 40.1388 29.3916 40.1388 30.1514 41.3024H30.1478Z" fill="url(#paint6_linear_738_69160)"/>
<path d="M8.67021 11.9818L9.5145 13.2739C9.74209 13.6189 10.0871 13.8686 10.4836 13.9787L11.9739 14.3825C12.9761 14.6541 13.3688 15.8618 12.7191 16.673L11.7537 17.8771C11.4967 18.2001 11.3646 18.6039 11.3829 19.015L11.4564 20.5567C11.5077 21.5919 10.4799 22.3408 9.51083 21.97L8.0682 21.4231C7.68277 21.2762 7.25696 21.2762 6.87152 21.4231L5.4289 21.97C4.45981 22.3371 3.43199 21.5919 3.48338 20.5567L3.55679 19.015C3.57515 18.6039 3.44667 18.1964 3.18604 17.8771L2.22062 16.673C1.57089 15.8655 1.96367 14.6578 2.9658 14.3825L4.45614 13.9787C4.85626 13.8686 5.20131 13.6189 5.42523 13.2739L6.26951 11.9818C6.83849 11.1155 8.10858 11.1155 8.67756 11.9818H8.67021Z" fill="url(#paint7_linear_738_69160)"/>
<defs>
<linearGradient id="paint0_linear_738_69160" x1="132.109" y1="116.744" x2="89.4616" y2="42.8802" gradientUnits="userSpaceOnUse">
<stop stop-color="#4D7EEE"/>
<stop offset="0.51" stop-color="#B4CAF7"/>
</linearGradient>
<linearGradient id="paint1_linear_738_69160" x1="18.1455" y1="116.744" x2="60.7928" y2="42.8802" gradientUnits="userSpaceOnUse">
<stop stop-color="#4D7EEE"/>
<stop offset="0.51" stop-color="#B4CAF7"/>
</linearGradient>
<radialGradient id="paint2_radial_738_69160" cx="0" cy="0" r="1" gradientUnits="userSpaceOnUse" gradientTransform="translate(75.1813 124.515) scale(45.4665 30.1732)">
<stop stop-color="#E9F1FF"/>
<stop offset="0.1" stop-color="#E9F1FF" stop-opacity="0.98"/>
<stop offset="0.21" stop-color="#EBF2FF" stop-opacity="0.93"/>
<stop offset="0.32" stop-color="#EEF4FF" stop-opacity="0.84"/>
<stop offset="0.44" stop-color="#F1F6FF" stop-opacity="0.72"/>
<stop offset="0.57" stop-color="#F6F9FF" stop-opacity="0.56"/>
<stop offset="0.69" stop-color="#FDFDFF" stop-opacity="0.36"/>
<stop offset="0.73" stop-color="white" stop-opacity="0.3"/>
<stop offset="1" stop-color="white" stop-opacity="0"/>
</radialGradient>
<linearGradient id="paint3_linear_738_69160" x1="90.9888" y1="95.9315" x2="90.9888" y2="82.5625" gradientUnits="userSpaceOnUse">
<stop stop-color="#2E3312"/>
<stop offset="1"/>
</linearGradient>
<linearGradient id="paint4_linear_738_69160" x1="59.2622" y1="-8.0511" x2="59.2622" y2="-8.0511" gradientUnits="userSpaceOnUse">
<stop stop-color="#2E3312"/>
<stop offset="1"/>
</linearGradient>
<linearGradient id="paint5_linear_738_69160" x1="120.017" y1="9.70651" x2="140.158" y2="9.70651" gradientUnits="userSpaceOnUse">
<stop stop-color="#FFF8B3"/>
<stop offset="1" stop-color="#FFD95F"/>
</linearGradient>
<linearGradient id="paint6_linear_738_69160" x1="28.5326" y1="40.4324" x2="28.5326" y2="54.822" gradientUnits="userSpaceOnUse">
<stop stop-color="#FFF8B3"/>
<stop offset="1" stop-color="#FFD95F"/>
</linearGradient>
<linearGradient id="paint7_linear_738_69160" x1="1.89759" y1="16.6951" x2="13.0348" y2="16.6951" gradientUnits="userSpaceOnUse">
<stop stop-color="#FFF8B3"/>
<stop offset="1" stop-color="#FFD95F"/>
</linearGradient>
</defs>
</svg>
