<svg width="48" height="48" viewBox="0 0 48 48" fill="none" xmlns="http://www.w3.org/2000/svg">
<g opacity="0.7">
<rect width="48" height="48" rx="24" fill="#A5B4C5"/>
<path d="M16.4528 29.8708L22.3232 24.0005L16.4528 18.1301C15.9897 17.6669 15.9897 16.916 16.4528 16.4528C16.916 15.9897 17.6669 15.9897 18.1301 16.4528L24.0005 22.3232L29.8708 16.4528C30.334 15.9897 31.0849 15.9897 31.5481 16.4528C32.0113 16.916 32.0113 17.6669 31.5481 18.1301L25.6777 24.0005L31.5481 29.8708C32.0113 30.334 32.0113 31.0849 31.5481 31.5481C31.0849 32.0113 30.334 32.0113 29.8708 31.5481L24.0005 25.6777L18.1301 31.5481C17.6669 32.0113 16.916 32.0113 16.4528 31.5481C15.9897 31.0849 15.9897 30.334 16.4528 29.8708Z" fill="#1F2027"/>
</g>
</svg>
