<svg width="56" height="58" viewBox="0 0 56 58" fill="none" xmlns="http://www.w3.org/2000/svg">
<path d="M28.0002 31.4173C29.2888 31.4173 30.3335 30.3353 30.3335 29.0007C30.3335 27.666 29.2888 26.584 28.0002 26.584C26.7115 26.584 25.6668 27.666 25.6668 29.0007C25.6668 30.3353 26.7115 31.4173 28.0002 31.4173Z" stroke="white" stroke-width="4" stroke-linecap="round" stroke-linejoin="round"/>
<path d="M44.3335 31.4173C45.6222 31.4173 46.6668 30.3353 46.6668 29.0007C46.6668 27.666 45.6222 26.584 44.3335 26.584C43.0448 26.584 42.0002 27.666 42.0002 29.0007C42.0002 30.3353 43.0448 31.4173 44.3335 31.4173Z" stroke="white" stroke-width="4" stroke-linecap="round" stroke-linejoin="round"/>
<path d="M11.6668 31.4173C12.9555 31.4173 14.0002 30.3353 14.0002 29.0007C14.0002 27.666 12.9555 26.584 11.6668 26.584C10.3782 26.584 9.3335 27.666 9.3335 29.0007C9.3335 30.3353 10.3782 31.4173 11.6668 31.4173Z" stroke="white" stroke-width="4" stroke-linecap="round" stroke-linejoin="round"/>
</svg>
