<svg width="24" height="24" viewBox="0 0 24 24" fill="none" xmlns="http://www.w3.org/2000/svg">
<path d="M20.2337 3.76943C19.99 3.52565 19.7006 3.33227 19.3821 3.20033C19.0636 3.06839 18.7222 3.00049 18.3775 3.00049C18.0327 3.00049 17.6914 3.06839 17.3729 3.20033C17.0544 3.33227 16.765 3.52565 16.5212 3.76943L10.1267 10.1609C9.74527 10.5451 9.44169 10.9995 9.23272 11.4989L7.96072 14.5694C7.87552 14.775 7.8532 15.0012 7.8966 15.2195C7.93999 15.4378 8.04714 15.6383 8.20451 15.7956C8.36187 15.953 8.56236 16.0602 8.78063 16.1035C8.9989 16.1469 9.22513 16.1246 9.43072 16.0394L12.5012 14.7674C13.0007 14.5585 13.455 14.2549 13.8392 13.8734L20.2322 7.48043C20.7241 6.9882 21.0004 6.3208 21.0004 5.62493C21.0004 4.92906 20.7256 4.26166 20.2337 3.76943Z" fill="#A5B4C5"/>
<path d="M7.125 5.25C6.09 5.25 5.25 6.09 5.25 7.125V16.875C5.25 17.91 6.09 18.75 7.125 18.75H16.875C17.91 18.75 18.75 17.91 18.75 16.875V13.5C18.75 13.2016 18.8685 12.9155 19.0795 12.7045C19.2905 12.4935 19.5766 12.375 19.875 12.375C20.1734 12.375 20.4595 12.4935 20.6705 12.7045C20.8815 12.9155 21 13.2016 21 13.5V16.875C21 17.969 20.5654 19.0182 19.7918 19.7918C19.0182 20.5654 17.969 21 16.875 21H7.125C6.03098 21 4.98177 20.5654 4.20818 19.7918C3.4346 19.0182 3 17.969 3 16.875V7.125C3 6.03098 3.4346 4.98177 4.20818 4.20818C4.98177 3.4346 6.03098 3 7.125 3H10.5C10.7984 3 11.0845 3.11853 11.2955 3.3295C11.5065 3.54048 11.625 3.82663 11.625 4.125C11.625 4.42337 11.5065 4.70952 11.2955 4.9205C11.0845 5.13147 10.7984 5.25 10.5 5.25H7.125Z" fill="#A5B4C5"/>
</svg>
