<svg width="24" height="24" viewBox="0 0 24 24" fill="none" xmlns="http://www.w3.org/2000/svg">
<path fill-rule="evenodd" clip-rule="evenodd" d="M3.0548 5.0255C2 6.05012 2 7.70038 2 11C2 14.2996 2 15.9499 3.0548 16.9745C4.1096 17.9991 5.8061 18 9.2 18H12.8C16.1939 18 17.8913 18 18.9452 16.9745C19.9991 15.949 20 14.2996 20 11C20 7.70038 20 6.05012 18.9452 5.0255C17.8904 4.00087 16.1939 4 12.8 4H9.2C5.8061 4 4.1087 4 3.0548 5.0255ZM16.9184 7.08C17.0329 7.21369 17.0882 7.38612 17.072 7.55939C17.0558 7.73266 16.9694 7.89258 16.832 8.004L14.8556 9.60525C14.0573 10.2527 13.4111 10.776 12.8396 11.133C12.2456 11.5049 11.6669 11.7394 11 11.7394C10.3331 11.7394 9.7544 11.504 9.1595 11.133C8.5889 10.776 7.9427 10.2519 7.1444 9.60612L5.168 8.00487C5.03039 7.89348 4.94393 7.73351 4.92765 7.56014C4.91136 7.38678 4.96658 7.21422 5.08115 7.08044C5.19572 6.94665 5.36027 6.8626 5.53859 6.84676C5.71691 6.83093 5.89439 6.88461 6.032 6.996L7.976 8.57012C8.8157 9.25 9.398 9.72075 9.8912 10.0288C10.3673 10.3263 10.6904 10.4269 11.0009 10.4269C11.3114 10.4269 11.6345 10.3271 12.1106 10.0288C12.6029 9.72075 13.1861 9.25 14.0258 8.57012L15.9689 6.99512C16.1065 6.88388 16.284 6.83033 16.4622 6.84625C16.6404 6.86217 16.8039 6.94625 16.9184 7.08Z" fill="#A5B4C5"/>
</svg>
