<svg width="20" height="20" viewBox="0 0 20 20" fill="none" xmlns="http://www.w3.org/2000/svg">
<path d="M4.44271 10.5556V6.11111H2.77604C2.33401 6.11111 1.91009 6.28671 1.59753 6.59927C1.28497 6.91183 1.10938 7.33575 1.10938 7.77778V17.7778C1.1102 17.881 1.13975 17.9819 1.1947 18.0692C1.24964 18.1565 1.32783 18.2268 1.42049 18.2722C1.50975 18.3128 1.60817 18.3291 1.70575 18.3193C1.80333 18.3096 1.89658 18.2741 1.97604 18.2167L4.83715 16.1111H12.3038C12.5144 16.1173 12.724 16.0803 12.9196 16.0022C13.1153 15.9241 13.2928 15.8067 13.4412 15.6572C13.5897 15.5078 13.7058 15.3294 13.7825 15.1332C13.8592 14.937 13.8948 14.7272 13.8872 14.5167V13.8889H7.77604C6.89199 13.8889 6.04414 13.5377 5.41902 12.9126C4.7939 12.2875 4.44271 11.4396 4.44271 10.5556Z" fill="#5D636F"/>
<path d="M17.2205 2.22223H7.77604C7.33401 2.22223 6.91009 2.39782 6.59753 2.71038C6.28497 3.02295 6.10938 3.44687 6.10938 3.8889V10.5556C6.10938 10.9976 6.28497 11.4215 6.59753 11.7341C6.91009 12.0466 7.33401 12.2222 7.77604 12.2222H15.3038L17.9594 14.2833C18.0383 14.3417 18.1313 14.3781 18.2289 14.3888C18.3265 14.3996 18.4252 14.3843 18.5149 14.3445C18.6095 14.2994 18.6894 14.2286 18.7454 14.1401C18.8014 14.0517 18.8313 13.9492 18.8316 13.8445V3.8889C18.8318 3.45633 18.6639 3.04061 18.3632 2.7296C18.0626 2.41859 17.6528 2.23665 17.2205 2.22223Z" fill="#5D636F"/>
</svg>
