<svg width="20" height="20" viewBox="0 0 20 20" fill="none" xmlns="http://www.w3.org/2000/svg">
<path fill-rule="evenodd" clip-rule="evenodd" d="M2.5 5C2.5 4.33696 2.76339 3.70107 3.23223 3.23223C3.70107 2.76339 4.33696 2.5 5 2.5H15C15.663 2.5 16.2989 2.76339 16.7678 3.23223C17.2366 3.70107 17.5 4.33696 17.5 5V15C17.5 15.663 17.2366 16.2989 16.7678 16.7678C16.2989 17.2366 15.663 17.5 15 17.5H5C4.33696 17.5 3.70107 17.2366 3.23223 16.7678C2.76339 16.2989 2.5 15.663 2.5 15V5ZM15.625 12.1337C15.625 11.9683 15.5593 11.8096 15.4425 11.6925L14.1925 10.4425C14.1344 10.3843 14.0655 10.3381 13.9895 10.3066C13.9136 10.2751 13.8322 10.2589 13.75 10.2589C13.6678 10.2589 13.5864 10.2751 13.5105 10.3066C13.4345 10.3381 13.3656 10.3843 13.3075 10.4425L11.6925 12.0575C11.6344 12.1157 11.5655 12.1619 11.4895 12.1934C11.4136 12.2249 11.3322 12.2411 11.25 12.2411C11.1678 12.2411 11.0864 12.2249 11.0105 12.1934C10.9345 12.1619 10.8656 12.1157 10.8075 12.0575L7.9425 9.1925C7.88444 9.1343 7.81547 9.08812 7.73954 9.05661C7.66361 9.0251 7.58221 9.00888 7.5 9.00888C7.41779 9.00888 7.33639 9.0251 7.26046 9.05661C7.18453 9.08812 7.11556 9.1343 7.0575 9.1925L4.5575 11.6925C4.44066 11.8096 4.37504 11.9683 4.375 12.1337V15C4.375 15.1658 4.44085 15.3247 4.55806 15.4419C4.67527 15.5592 4.83424 15.625 5 15.625H15C15.1658 15.625 15.3247 15.5592 15.4419 15.4419C15.5592 15.3247 15.625 15.1658 15.625 15V12.1337ZM15 6.25C15 6.58152 14.8683 6.89946 14.6339 7.13388C14.3995 7.3683 14.0815 7.5 13.75 7.5C13.4185 7.5 13.1005 7.3683 12.8661 7.13388C12.6317 6.89946 12.5 6.58152 12.5 6.25C12.5 5.91848 12.6317 5.60054 12.8661 5.36612C13.1005 5.1317 13.4185 5 13.75 5C14.0815 5 14.3995 5.1317 14.6339 5.36612C14.8683 5.60054 15 5.91848 15 6.25Z" fill="#A5B4C5"/>
</svg>
