<svg width="193" height="217" viewBox="0 0 193 217" fill="none" xmlns="http://www.w3.org/2000/svg">
<path d="M40.2083 189.875H152.792C161.674 189.875 168.875 181.779 168.875 171.792V45.2083C168.875 35.2212 161.674 27.125 152.792 27.125H40.2083C31.3258 27.125 24.125 35.2212 24.125 45.2083V171.792C24.125 181.779 31.3258 189.875 40.2083 189.875ZM40.2083 189.875L128.667 90.4167L168.875 135.625M80.4167 76.8542C80.4167 84.3445 75.0161 90.4167 68.3542 90.4167C61.6922 90.4167 56.2917 84.3445 56.2917 76.8542C56.2917 69.3638 61.6922 63.2917 68.3542 63.2917C75.0161 63.2917 80.4167 69.3638 80.4167 76.8542Z" stroke="white" stroke-width="4" stroke-linecap="round" stroke-linejoin="round"/>
</svg>
