<svg width="48" height="48" viewBox="0 0 48 48" fill="none" xmlns="http://www.w3.org/2000/svg">
<path fill-rule="evenodd" clip-rule="evenodd" d="M22.6172 17.6152C21.2911 17.6152 20.0193 18.142 19.0817 19.0797C18.144 20.0174 17.6172 21.2892 17.6172 22.6152C17.6172 23.9413 18.144 25.2131 19.0817 26.1508C20.0193 27.0885 21.2911 27.6152 22.6172 27.6152C23.9433 27.6152 25.215 27.0885 26.1527 26.1508C27.0904 25.2131 27.6172 23.9413 27.6172 22.6152C27.6172 21.2892 27.0904 20.0174 26.1527 19.0797C25.215 18.142 23.9433 17.6152 22.6172 17.6152ZM16.1172 22.6152C16.1172 20.8913 16.802 19.238 18.021 18.019C19.24 16.8001 20.8933 16.1152 22.6172 16.1152C24.3411 16.1152 25.9944 16.8001 27.2134 18.019C28.4324 19.238 29.1172 20.8913 29.1172 22.6152C29.1172 24.3391 28.4324 25.9924 27.2134 27.2114C25.9944 28.4304 24.3411 29.1152 22.6172 29.1152C20.8933 29.1152 19.24 28.4304 18.021 27.2114C16.802 25.9924 16.1172 24.3391 16.1172 22.6152Z" fill="#7D8799"/>
<path fill-rule="evenodd" clip-rule="evenodd" d="M26.5865 26.5846C26.7272 26.4441 26.9178 26.3652 27.1165 26.3652C27.3153 26.3652 27.5059 26.4441 27.6465 26.5846L31.6465 30.5846C31.7202 30.6532 31.7793 30.736 31.8203 30.828C31.8613 30.92 31.8833 31.0193 31.8851 31.1201C31.8869 31.2208 31.8684 31.3208 31.8307 31.4142C31.7929 31.5076 31.7368 31.5924 31.6656 31.6636C31.5943 31.7348 31.5095 31.791 31.4161 31.8287C31.3227 31.8664 31.2227 31.8849 31.122 31.8832C31.0213 31.8814 30.922 31.8593 30.83 31.8184C30.738 31.7774 30.6552 31.7183 30.5865 31.6446L26.5865 27.6446C26.4461 27.5039 26.3672 27.3133 26.3672 27.1146C26.3672 26.9158 26.4461 26.7252 26.5865 26.5846Z" fill="#7D8799"/>
</svg>
