<svg width="176" height="42" viewBox="0 0 176 42" fill="none" xmlns="http://www.w3.org/2000/svg">
<path d="M32.1597 15.888H25.4877V11.952H32.1597V7.632H25.4877V3.696H32.1597V-2.86102e-06H36.9117V20.544H32.1597V15.888ZM23.3757 19.056H-0.000312328V0.719999H4.65569V5.808H18.7677V0.719999H23.3757V19.056ZM18.7677 15.216V9.6H4.65569V15.216H18.7677ZM37.9197 36.768V40.464H2.01569V29.856H32.2077V26.496H1.91969V22.8H36.9117V33.36H6.71969V36.768H37.9197ZM82.7476 22.656H77.9956V-2.86102e-06H82.7476V22.656ZM70.7476 19.488H46.3636V0.719999H51.0196V5.952H66.0916V0.719999H70.7476V19.488ZM66.0916 15.6V9.792H51.0196V15.6H66.0916ZM82.9396 41.04L64.6996 35.136C62.7796 36.864 60.2676 38.176 57.1636 39.072C54.0916 40 50.8436 40.464 47.4196 40.464V36.48C51.0676 36.48 54.4116 35.872 57.4516 34.656C60.4916 33.44 62.4436 31.776 63.3076 29.664H47.7076V25.824H63.1156V21.6H67.9636V25.824H83.3236V29.664H68.1556C67.8996 30.56 67.5956 31.328 67.2436 31.968L84.2836 37.104L82.9396 41.04ZM133.527 21.168H127.767V40.992H123.015V-2.86102e-06H127.767V16.608H133.527V21.168ZM108.855 34.224C110.807 34.224 112.743 34.048 114.663 33.696C116.615 33.344 118.215 32.864 119.463 32.256V36.576C118.247 37.184 116.631 37.664 114.615 38.016C112.631 38.368 110.631 38.544 108.615 38.544H92.5834V1.488H116.247V5.808H97.4314V34.224H108.855ZM170.339 -2.86102e-06H175.091V40.992H170.339V-2.86102e-06ZM139.187 17.52H157.523V5.856H139.091V1.488H162.275V21.888H143.939V34.176H155.939C157.891 34.176 159.827 34 161.747 33.648C163.699 33.296 165.299 32.816 166.547 32.208V36.576C165.331 37.184 163.747 37.664 161.795 38.016C159.843 38.368 157.843 38.544 155.795 38.544H139.187V17.52Z" fill="white"/>
</svg>
