<svg width="20" height="20" viewBox="0 0 20 20" fill="none" xmlns="http://www.w3.org/2000/svg">
<path d="M19.2704 10.9792L17.0504 11.132C16.4547 11.1749 16.209 11.9027 16.6633 12.2806L18.369 13.677C18.7412 13.9828 19.3076 13.8228 19.4569 13.3713L19.9633 11.852C20.1197 11.4006 19.7547 10.9427 19.2704 10.9792ZM14.1068 0.756206L13.5925 2.82765C13.4497 3.3848 14.064 3.83481 14.5497 3.52766L16.364 2.39908C16.7569 2.15622 16.7783 1.58478 16.3997 1.31335L15.1283 0.391917C15.0422 0.327768 14.9417 0.285862 14.8356 0.269922C14.7295 0.253983 14.6211 0.264504 14.52 0.30055C14.4189 0.336596 14.3283 0.397051 14.2562 0.476542C14.1842 0.556034 14.1328 0.652101 14.1068 0.756206ZM3.16386 2.40194L4.97102 3.53052C5.45674 3.83766 6.07103 3.3948 5.93532 2.83051L5.42103 0.759063C5.39469 0.655178 5.34334 0.559313 5.27145 0.479823C5.19957 0.400332 5.10934 0.339629 5.00862 0.303004C4.9079 0.266378 4.79975 0.254942 4.69359 0.269693C4.58744 0.284443 4.48651 0.324932 4.39959 0.387631L3.12815 1.30907C2.74957 1.59478 2.771 2.15908 3.16386 2.40194ZM1.56028 13.6292L3.19601 12.2577C3.63887 11.8863 3.40315 11.1649 2.83172 11.1292L0.703126 10.9792C0.595924 10.9716 0.488514 10.9905 0.390307 11.0342C0.2921 11.0778 0.206093 11.1449 0.139823 11.2295C0.073553 11.3141 0.029042 11.4136 0.0101902 11.5194C-0.00866162 11.6252 -0.0012788 11.734 0.0316915 11.8363L0.51741 13.3292C0.660269 13.772 1.21027 13.9292 1.56028 13.6292ZM11.2818 18.8378L10.4818 16.8592C10.2675 16.3235 9.51035 16.3235 9.29607 16.8592L8.49606 18.8378C8.32463 19.2664 8.63892 19.7378 9.10321 19.7378H10.6747C10.7816 19.7372 10.8869 19.7106 10.9812 19.6601C11.0755 19.6096 11.1561 19.5369 11.216 19.4482C11.2758 19.3595 11.3131 19.2575 11.3245 19.1512C11.336 19.0448 11.3213 18.9372 11.2818 18.8378Z" fill="#FFDDB6"/>
<path d="M11.1152 1.20847L12.3481 3.86563C12.5809 4.36135 13.0388 4.7085 13.5745 4.78707L16.4717 5.23279C17.7824 5.43136 18.311 7.03995 17.3953 7.98924L15.1888 10.2628C15.0111 10.4461 14.879 10.6685 14.803 10.9122C14.7271 11.1559 14.7095 11.414 14.7517 11.6657L15.2588 14.79C15.4781 16.1365 14.0538 17.1422 12.8631 16.4829L10.4309 15.13C10.19 14.9942 9.91815 14.9229 9.64161 14.9229C9.36507 14.9229 9.09321 14.9942 8.85232 15.13L6.42087 16.4836C5.22943 17.1422 3.80584 16.1365 4.02442 14.7907L4.53156 11.6657C4.57373 11.414 4.55613 11.1559 4.4802 10.9122C4.40426 10.6685 4.27212 10.4461 4.09442 10.2628L1.88868 7.98853C0.9651 7.03138 1.50082 5.43065 2.81226 5.23207L5.70872 4.78564C5.97268 4.74342 6.22236 4.63743 6.43609 4.47686C6.64981 4.31628 6.82112 4.10598 6.93516 3.8642L8.16874 1.20775C8.75375 -0.0529744 10.5302 -0.0529744 11.1145 1.20775" fill="#F8CE48"/>
</svg>
