<svg width="48" height="48" viewBox="0 0 48 48" fill="none" xmlns="http://www.w3.org/2000/svg">
<path d="M21.6572 28.3144C19.7966 28.3144 18.2221 27.6698 16.9337 26.3807C15.6452 25.0916 15.0007 23.5171 15 21.6572C14.9993 19.7973 15.6439 18.2228 16.9337 16.9337C18.2234 15.6446 19.798 15 21.6572 15C23.5164 15 25.0913 15.6446 26.3817 16.9337C27.6722 18.2228 28.3164 19.7973 28.3144 21.6572C28.3144 22.4083 28.1949 23.1166 27.9559 23.7824C27.7169 24.4481 27.3926 25.037 26.9829 25.5491L32.7183 31.2845C32.9061 31.4723 33 31.7112 33 32.0014C33 32.2916 32.9061 32.5306 32.7183 32.7183C32.5306 32.9061 32.2916 33 32.0014 33C31.7112 33 31.4723 32.9061 31.2845 32.7183L25.5491 26.9829C25.037 27.3926 24.4481 27.7169 23.7824 27.9559C23.1166 28.1949 22.4083 28.3144 21.6572 28.3144ZM21.6572 26.266C22.9374 26.266 24.0258 25.8181 24.9223 24.9223C25.8188 24.0265 26.2667 22.9381 26.266 21.6572C26.2653 20.3763 25.8174 19.2883 24.9223 18.3931C24.0271 17.498 22.9388 17.0497 21.6572 17.0484C20.3756 17.047 19.2876 17.4952 18.3931 18.3931C17.4987 19.291 17.0504 20.379 17.0484 21.6572C17.0463 22.9354 17.4946 24.0237 18.3931 24.9223C19.2917 25.8208 20.3797 26.2687 21.6572 26.266Z" fill="#D9E0ED"/>
</svg>
