<svg width="48" height="48" viewBox="0 0 48 48" fill="none" xmlns="http://www.w3.org/2000/svg">
<path d="M26.3203 15H21.6789L21.1465 17.6485C20.7056 17.8449 20.2865 18.0862 19.8956 18.3685L17.3198 17.502L15 21.498L17.0417 23.2816C16.9924 23.7593 16.9924 24.2407 17.0417 24.7184L15 26.502L17.3207 30.498L19.8956 29.6324C20.284 29.9122 20.7021 30.1544 21.1465 30.3515L21.6789 33H26.3203L26.8527 30.3515C27.2935 30.1551 27.7127 29.9138 28.1036 29.6315L30.6793 30.498L33 26.502L30.9575 24.7184C31.0068 24.2407 31.0068 23.7593 30.9575 23.2816L32.9992 21.498L30.6785 17.502L28.1044 18.3676C27.7135 18.0856 27.2943 17.8446 26.8535 17.6485L26.3203 15ZM23.9996 27.2727C23.1266 27.2727 22.2893 26.9279 21.672 26.3142C21.0547 25.7004 20.7079 24.868 20.7079 24C20.7079 23.132 21.0547 22.2996 21.672 21.6858C22.2893 21.0721 23.1266 20.7273 23.9996 20.7273C24.8726 20.7273 25.7099 21.0721 26.3272 21.6858C26.9445 22.2996 27.2913 23.132 27.2913 24C27.2913 24.868 26.9445 25.7004 26.3272 26.3142C25.7099 26.9279 24.8726 27.2727 23.9996 27.2727Z" fill="#D9E0ED"/>
</svg>
