<svg width="48" height="48" viewBox="0 0 48 48" fill="none" xmlns="http://www.w3.org/2000/svg">
<path d="M17.2803 29.5521H30.7193C31.525 29.5521 32 29.1341 32 28.5194C32 27.6658 31.1433 26.8978 30.4057 26.1382C29.846 25.5493 29.6934 24.3374 29.634 23.356C29.5664 20.0786 28.7101 17.8168 26.4461 16.9974C26.1325 15.8878 25.2505 15 24.0042 15C22.7488 15 21.8759 15.8878 21.5535 16.9974C19.2983 17.8168 18.4333 20.0782 18.3739 23.3556C18.3063 24.3374 18.1619 25.5493 17.594 26.1382C16.8646 26.8978 16 27.6658 16 28.5198C16 29.1341 16.4833 29.5521 17.2803 29.5521ZM21.4179 30.7131C21.5199 31.9592 22.5625 33 24.0042 33C25.4368 33 26.4798 31.9592 26.5901 30.7131H21.4179Z" fill="#D9E0ED"/>
</svg>
