<svg width="20" height="20" viewBox="0 0 20 20" fill="none" xmlns="http://www.w3.org/2000/svg">
<path fill-rule="evenodd" clip-rule="evenodd" d="M3.47667 2.64332C2.5 3.61916 2.5 5.19082 2.5 8.33332V11.6667C2.5 14.8092 2.5 16.3808 3.47667 17.3567C4.45333 18.3325 6.02417 18.3333 9.16667 18.3333H10.8333C13.9758 18.3333 15.5475 18.3333 16.5233 17.3567C17.4992 16.38 17.5 14.8092 17.5 11.6667V8.33332C17.5 5.19082 17.5 3.61916 16.5233 2.64332C15.5467 1.66749 13.9758 1.66666 10.8333 1.66666H9.16667C6.02417 1.66666 4.4525 1.66666 3.47667 2.64332ZM6.66667 7.70832C6.50091 7.70832 6.34193 7.77417 6.22472 7.89138C6.10751 8.00859 6.04167 8.16756 6.04167 8.33332C6.04167 8.49908 6.10751 8.65805 6.22472 8.77526C6.34193 8.89247 6.50091 8.95832 6.66667 8.95832H13.3333C13.4991 8.95832 13.6581 8.89247 13.7753 8.77526C13.8925 8.65805 13.9583 8.49908 13.9583 8.33332C13.9583 8.16756 13.8925 8.00859 13.7753 7.89138C13.6581 7.77417 13.4991 7.70832 13.3333 7.70832H6.66667ZM6.66667 11.0417C6.50091 11.0417 6.34193 11.1075 6.22472 11.2247C6.10751 11.3419 6.04167 11.5009 6.04167 11.6667C6.04167 11.8324 6.10751 11.9914 6.22472 12.1086C6.34193 12.2258 6.50091 12.2917 6.66667 12.2917H10.8333C10.9991 12.2917 11.1581 12.2258 11.2753 12.1086C11.3925 11.9914 11.4583 11.8324 11.4583 11.6667C11.4583 11.5009 11.3925 11.3419 11.2753 11.2247C11.1581 11.1075 10.9991 11.0417 10.8333 11.0417H6.66667Z" fill="#5D636F"/>
</svg>
